{"glyphs":{"0":{"ha":383,"x_min":0,"x_max":0,"o":"m 192 -14 b 353 181 290 -14 353 50 l 353 790 b 192 985 353 921 290 985 b 31 790 93 985 31 921 l 31 181 b 192 -14 31 50 93 -14 z m 192 58 b 108 161 146 58 108 85 l 108 810 b 192 913 108 888 146 913 b 275 810 238 913 275 888 l 275 161 b 192 58 275 83 238 58 z "},"1":{"ha":206,"x_min":0,"x_max":0,"o":"m 175 0 l 175 985 l 103 985 b 14 888 103 907 75 888 l 14 815 l 97 815 l 97 0 z "},"2":{"ha":382,"x_min":0,"x_max":0,"o":"m 28 0 l 351 0 l 351 72 l 106 72 l 106 174 b 224 421 106 329 144 361 l 244 438 b 351 658 294 475 351 524 l 351 790 b 194 985 351 914 294 985 b 38 790 94 985 38 914 l 38 649 l 115 649 l 115 810 b 194 913 115 876 143 913 b 274 810 246 913 274 876 l 274 658 b 179 485 274 561 243 531 l 157 468 b 28 174 101 429 28 371 z "},"3":{"ha":383,"x_min":0,"x_max":0,"o":"m 31 365 l 31 181 b 192 -14 31 56 89 -14 b 353 181 294 -14 353 56 l 353 360 b 244 514 353 440 321 506 l 244 517 b 353 671 321 528 353 590 l 353 790 b 192 985 353 915 294 985 b 31 790 89 985 31 915 l 31 660 l 108 660 l 108 810 b 192 913 108 876 138 913 b 275 810 246 913 275 876 l 275 657 b 192 554 275 590 246 554 l 121 554 l 121 476 l 192 476 b 275 374 246 476 275 440 l 275 161 b 192 58 275 94 246 58 b 108 161 138 58 108 94 l 108 365 z "},"4":{"ha":415,"x_min":0,"x_max":0,"o":"m 28 247 l 247 247 l 247 0 l 325 0 l 325 247 l 388 247 l 388 319 l 325 319 l 325 971 l 188 971 l 28 319 z m 103 319 l 244 913 l 247 913 l 247 319 z "},"5":{"ha":383,"x_min":0,"x_max":0,"o":"m 31 364 l 31 181 b 190 -14 31 57 89 -14 b 353 192 294 -14 353 60 l 353 500 b 231 667 353 608 310 667 b 111 567 169 667 126 632 l 108 567 l 108 899 l 331 899 l 331 971 l 31 971 l 31 439 l 108 439 l 108 471 b 201 594 108 547 144 594 b 275 492 251 594 275 561 l 275 161 b 192 58 275 94 246 58 b 108 161 138 58 108 94 l 108 364 z "},"6":{"ha":383,"x_min":0,"x_max":0,"o":"m 108 497 l 108 810 b 192 913 108 876 138 913 b 275 810 246 913 275 876 l 275 667 l 353 667 l 353 790 b 192 985 353 915 294 985 b 31 790 89 985 31 915 l 31 181 b 190 -14 31 57 89 -14 b 353 192 294 -14 353 60 l 353 431 b 231 597 353 539 310 597 b 111 497 169 597 126 561 z m 192 58 b 108 161 138 58 108 94 l 108 401 b 201 525 108 478 143 525 b 275 422 250 525 275 492 l 275 161 b 192 58 275 94 246 58 z "},"7":{"ha":336,"x_min":0,"x_max":0,"o":"m 322 971 l 7 971 l 7 899 l 243 899 l 75 0 l 153 0 l 322 899 z "},"8":{"ha":383,"x_min":0,"x_max":0,"o":"m 125 514 b 31 360 58 506 31 440 l 31 181 b 192 -14 31 56 89 -14 b 353 181 294 -14 353 57 l 353 360 b 258 514 353 440 325 506 l 258 517 b 353 671 325 528 353 590 l 353 790 b 192 985 353 915 294 985 b 31 790 89 985 31 915 l 31 671 b 125 517 31 590 58 528 z m 192 554 b 108 657 138 554 108 590 l 108 810 b 192 913 108 876 138 913 b 275 810 246 913 275 876 l 275 657 b 192 554 275 590 246 554 z m 192 58 b 108 161 138 58 108 94 l 108 374 b 192 476 108 440 138 476 b 275 374 246 476 275 440 l 275 161 b 192 58 275 94 246 58 z "},"9":{"ha":383,"x_min":0,"x_max":0,"o":"m 31 332 l 31 181 b 192 -14 31 56 89 -14 b 353 181 294 -14 353 56 l 353 790 b 193 985 353 914 294 985 b 31 779 89 985 31 911 l 31 568 b 153 401 31 460 74 401 b 272 501 214 401 257 438 l 275 501 l 275 161 b 192 58 275 94 246 58 b 108 161 138 58 108 94 l 108 332 z m 182 474 b 108 576 133 474 108 507 l 108 810 b 192 913 108 876 138 913 b 275 810 246 913 275 876 l 275 597 b 182 474 275 521 240 474 z "},"\u0000":{"ha":694,"x_min":0,"x_max":0,"o":""},"\r":{"ha":694,"x_min":0,"x_max":0,"o":""}," ":{"ha":139,"x_min":0,"x_max":0,"o":""},"H":{"ha":394,"x_min":0,"x_max":0,"o":"m 281 971 l 281 551 l 114 551 l 114 971 l 31 971 l 31 0 l 114 0 l 114 474 l 281 474 l 281 0 l 364 0 l 364 971 z "},"I":{"ha":144,"x_min":0,"x_max":0,"o":"m 31 971 l 31 0 l 114 0 l 114 971 z "},"J":{"ha":390,"x_min":0,"x_max":0,"o":"m 31 350 l 31 168 b 196 -14 31 46 94 -14 b 360 168 296 -14 360 46 l 360 971 l 276 971 l 276 167 b 193 64 276 89 239 64 b 110 167 147 64 110 90 l 110 350 z "},"K":{"ha":408,"x_min":0,"x_max":0,"o":"m 31 0 l 114 0 l 114 496 l 117 496 l 318 0 l 408 0 l 186 526 l 397 971 l 313 971 l 117 556 l 114 556 l 114 971 l 31 971 z "},"L":{"ha":289,"x_min":0,"x_max":0,"o":"m 31 971 l 31 0 l 281 0 l 281 78 l 114 78 l 114 971 z "},"M":{"ha":569,"x_min":0,"x_max":0,"o":"m 31 0 l 111 0 l 111 593 l 97 899 l 100 899 l 228 0 l 339 0 l 467 899 l 469 899 l 456 593 l 456 0 l 539 0 l 539 971 l 406 971 l 288 72 l 285 72 l 164 971 l 31 971 z "},"N":{"ha":436,"x_min":0,"x_max":0,"o":"m 31 971 l 31 0 l 114 0 l 114 535 l 93 899 l 96 899 l 292 0 l 406 0 l 406 971 l 322 971 l 322 438 l 347 86 l 344 86 l 151 971 z "},"O":{"ha":394,"x_min":0,"x_max":0,"o":"m 197 -14 b 364 181 299 -14 364 50 l 364 790 b 197 985 364 921 299 985 b 31 790 96 985 31 921 l 31 181 b 197 -14 31 50 96 -14 z m 197 64 b 114 167 151 64 114 90 l 114 804 b 197 907 114 882 151 907 b 281 804 243 907 281 882 l 281 167 b 197 64 281 89 243 64 z "},"P":{"ha":390,"x_min":0,"x_max":0,"o":"m 31 0 l 114 0 l 114 433 l 193 433 b 360 628 294 433 360 497 l 360 776 b 193 971 360 907 294 971 l 31 971 z m 114 511 l 114 893 l 197 893 b 281 790 243 893 281 868 l 281 614 b 197 511 281 536 243 511 z "},"Q":{"ha":394,"x_min":0,"x_max":0,"o":"m 197 -14 b 240 -10 213 -14 226 -12 b 304 -112 257 -43 275 -71 l 363 -65 b 294 13 333 -35 313 -12 b 364 181 339 43 364 99 l 364 790 b 197 985 364 921 299 985 b 31 790 96 985 31 921 l 31 181 b 197 -14 31 50 96 -14 z m 197 64 b 114 167 151 64 114 90 l 114 804 b 197 907 114 882 151 907 b 281 804 243 907 281 882 l 281 167 b 197 64 281 89 243 64 z "},"R":{"ha":390,"x_min":0,"x_max":0,"o":"m 31 0 l 114 0 l 114 446 l 182 446 b 263 343 238 446 254 425 l 297 0 l 381 0 l 344 340 b 251 488 333 443 315 479 l 251 490 b 360 661 328 501 360 563 l 360 779 b 193 971 360 903 300 971 l 31 971 z m 114 521 l 114 893 l 197 893 b 281 790 251 893 281 857 l 281 631 b 197 521 281 564 251 521 z "},"S":{"ha":375,"x_min":0,"x_max":0,"o":"m 21 336 l 21 181 b 188 -14 21 50 86 -14 b 354 181 289 -14 354 50 l 354 300 b 232 513 354 422 283 476 l 208 529 b 108 715 131 585 108 606 l 108 804 b 188 907 108 882 144 907 b 267 804 231 907 267 882 l 267 649 l 346 649 l 346 790 b 188 985 346 921 283 985 b 29 790 92 985 29 921 l 29 685 b 154 469 29 563 99 511 l 176 453 b 271 269 254 394 271 379 l 271 167 b 188 64 271 90 233 64 b 104 167 142 64 104 89 l 104 336 z "},"T":{"ha":375,"x_min":0,"x_max":0,"o":"m 354 971 l 21 971 l 21 893 l 146 893 l 146 0 l 229 0 l 229 893 l 354 893 z "},"U":{"ha":394,"x_min":0,"x_max":0,"o":"m 31 971 l 31 168 b 197 -14 31 46 96 -14 b 364 168 299 -14 364 46 l 364 971 l 281 971 l 281 167 b 197 64 281 89 243 64 b 114 167 151 64 114 90 l 114 971 z "},"V":{"ha":411,"x_min":0,"x_max":0,"o":"m 146 0 l 272 0 l 400 971 l 318 971 l 211 58 l 208 58 l 96 971 l 11 971 z "},"W":{"ha":647,"x_min":0,"x_max":0,"o":"m 104 0 l 232 0 l 272 378 l 322 899 l 325 899 l 375 378 l 415 0 l 543 0 l 636 971 l 554 971 l 479 58 l 476 58 l 385 971 l 267 971 l 174 58 l 171 58 l 96 971 l 11 971 z "},"X":{"ha":408,"x_min":0,"x_max":0,"o":"m 11 0 l 96 0 l 203 496 l 206 496 l 313 0 l 397 0 l 271 525 l 389 971 l 306 971 l 206 554 l 203 554 l 103 971 l 19 971 l 138 525 z "},"Y":{"ha":411,"x_min":0,"x_max":0,"o":"m 400 971 l 318 971 l 211 463 l 208 463 l 96 971 l 11 971 l 167 356 l 167 0 l 250 0 l 250 356 z "},"Z":{"ha":383,"x_min":0,"x_max":0,"o":"m 14 0 l 369 0 l 369 78 l 99 78 l 354 893 l 354 971 l 28 971 l 28 893 l 269 893 l 14 78 z "},"a":{"ha":361,"x_min":0,"x_max":0,"o":"m 263 0 l 333 0 l 333 599 b 183 792 333 724 281 792 b 32 599 86 792 32 722 l 32 511 l 106 511 l 106 614 b 181 719 106 682 132 719 b 256 614 229 719 256 682 l 256 490 b 28 244 67 408 28 367 l 28 151 b 140 -14 28 49 64 -14 b 253 111 199 -14 238 22 l 256 111 z m 256 417 l 256 306 b 163 58 256 128 219 58 b 106 157 126 58 106 88 l 106 251 b 256 417 106 335 124 356 z "},"b":{"ha":361,"x_min":0,"x_max":0,"o":"m 28 0 l 99 0 l 106 111 l 108 111 b 221 -14 124 22 163 -14 b 333 151 297 -14 333 49 l 333 626 b 221 792 333 729 297 792 b 108 667 163 792 124 756 l 106 667 l 106 999 l 28 999 z m 199 58 b 106 306 142 58 106 128 l 106 472 b 199 719 106 650 142 719 b 256 621 235 719 256 690 l 256 157 b 199 58 256 88 235 58 z "},"c":{"ha":357,"x_min":0,"x_max":0,"o":"m 181 58 b 106 164 139 58 106 86 l 106 614 b 181 719 106 692 139 719 b 256 614 222 719 256 692 l 256 463 l 329 463 l 329 599 b 179 792 329 729 271 792 b 28 599 88 792 28 729 l 28 181 b 179 -14 28 50 88 -14 b 329 181 271 -14 329 50 l 329 329 l 256 329 l 256 164 b 181 58 256 86 222 58 z "},"d":{"ha":361,"x_min":0,"x_max":0,"o":"m 333 0 l 333 999 l 256 999 l 256 667 l 253 667 b 140 792 238 756 199 792 b 28 626 64 792 28 729 l 28 151 b 140 -14 28 49 64 -14 b 253 111 199 -14 238 22 l 256 111 l 263 0 z m 163 58 b 106 157 126 58 106 88 l 106 621 b 163 719 106 690 126 719 b 256 472 219 719 256 650 l 256 306 b 163 58 256 128 219 58 z "},"e":{"ha":357,"x_min":0,"x_max":0,"o":"m 181 58 b 106 164 139 58 106 86 l 106 365 l 329 365 l 329 599 b 179 792 329 729 271 792 b 28 599 88 792 28 729 l 28 181 b 179 -14 28 50 88 -14 b 329 181 271 -14 329 50 l 329 301 l 256 301 l 256 164 b 181 58 256 86 222 58 z m 106 432 l 106 614 b 181 719 106 692 139 719 b 256 614 222 719 256 692 l 256 432 z "},"f":{"ha":324,"x_min":0,"x_max":0,"o":"m 14 706 l 89 706 l 89 0 l 167 0 l 167 706 l 296 706 l 296 778 l 167 778 l 167 854 b 242 940 167 915 189 940 b 296 933 258 940 275 939 l 296 1004 b 228 1014 272 1011 249 1014 b 89 856 140 1014 89 956 l 89 778 l 14 778 z "},"g":{"ha":361,"x_min":0,"x_max":0,"o":"m 35 0 l 35 -26 b 185 -221 35 -157 94 -221 b 333 -26 275 -221 333 -157 l 333 778 l 263 778 l 256 667 l 253 667 b 140 792 238 756 199 792 b 28 626 64 792 28 729 l 28 207 b 140 42 28 104 64 42 b 253 167 199 42 238 78 l 256 167 l 256 -42 b 182 -147 256 -119 222 -147 b 108 -42 142 -147 108 -119 l 108 0 z m 163 114 b 106 213 126 114 106 143 l 106 621 b 163 719 106 690 126 719 b 256 472 219 719 256 650 l 256 361 b 163 114 256 183 219 114 z "},"h":{"ha":361,"x_min":0,"x_max":0,"o":"m 28 0 l 106 0 l 106 501 b 200 719 106 646 138 719 b 256 628 239 719 256 692 l 256 0 l 333 0 l 333 639 b 232 792 333 740 300 792 b 108 651 168 792 126 744 l 106 651 l 106 999 l 28 999 z "},"i":{"ha":133,"x_min":0,"x_max":0,"o":"m 28 860 l 106 860 l 106 985 l 28 985 z m 28 0 l 106 0 l 106 778 l 28 778 z "},"j":{"ha":133,"x_min":0,"x_max":0,"o":"m 28 860 l 106 860 l 106 985 l 28 985 z m -74 -214 b -26 -221 -56 -219 -39 -221 b 106 -62 57 -221 106 -161 l 106 778 l 28 778 l 28 -61 b -36 -147 28 -124 10 -147 b -74 -144 -46 -147 -58 -147 z "},"k":{"ha":376,"x_min":0,"x_max":0,"o":"m 28 0 l 106 0 l 106 381 l 108 381 l 279 0 l 367 0 l 167 422 l 356 778 l 274 778 l 108 463 l 106 463 l 106 999 l 28 999 z "},"l":{"ha":133,"x_min":0,"x_max":0,"o":"m 28 0 l 106 0 l 106 999 l 28 999 z "},"m":{"ha":589,"x_min":0,"x_max":0,"o":"m 28 0 l 106 0 l 106 501 b 200 719 106 646 138 719 b 256 628 239 719 256 692 l 256 0 l 333 0 l 333 501 b 428 719 333 646 365 719 b 483 628 467 719 483 692 l 483 0 l 561 0 l 561 639 b 460 792 561 740 528 792 b 336 651 396 792 354 744 l 333 651 b 232 792 333 740 297 792 b 108 651 168 792 126 744 l 106 651 l 97 778 l 28 778 z "},"n":{"ha":361,"x_min":0,"x_max":0,"o":"m 28 0 l 106 0 l 106 501 b 200 719 106 646 138 719 b 256 628 239 719 256 692 l 256 0 l 333 0 l 333 639 b 232 792 333 740 300 792 b 108 651 168 792 126 744 l 106 651 l 97 778 l 28 778 z "},"o":{"ha":361,"x_min":0,"x_max":0,"o":"m 181 -14 b 333 181 274 -14 333 50 l 333 599 b 181 792 333 729 274 792 b 28 599 88 792 28 729 l 28 181 b 181 -14 28 50 88 -14 z m 181 58 b 106 164 139 58 106 86 l 106 614 b 181 719 106 692 139 719 b 256 614 222 719 256 692 l 256 164 b 181 58 256 86 222 58 z "},"p":{"ha":361,"x_min":0,"x_max":0,"o":"m 28 -207 l 106 -207 l 106 111 l 108 111 b 221 -14 124 22 163 -14 b 333 151 297 -14 333 49 l 333 626 b 221 792 333 729 297 792 b 108 667 163 792 124 756 l 106 667 l 99 778 l 28 778 z m 199 58 b 106 306 142 58 106 128 l 106 472 b 199 719 106 650 142 719 b 256 621 235 719 256 690 l 256 157 b 199 58 256 88 235 58 z "},"q":{"ha":361,"x_min":0,"x_max":0,"o":"m 333 -207 l 333 778 l 263 778 l 256 667 l 253 667 b 140 792 238 756 199 792 b 28 626 64 792 28 729 l 28 151 b 140 -14 28 49 64 -14 b 253 111 199 -14 238 22 l 256 111 l 256 -207 z m 163 58 b 106 157 126 58 106 88 l 106 621 b 163 719 106 690 126 719 b 256 472 219 719 256 650 l 256 306 b 163 58 256 128 219 58 z "},"r":{"ha":258,"x_min":0,"x_max":0,"o":"m 28 0 l 106 0 l 106 449 b 221 685 106 582 129 685 b 247 683 229 685 238 685 l 247 788 b 218 792 236 790 226 792 b 108 610 150 792 125 715 l 106 610 l 99 778 l 28 778 z "},"s":{"ha":343,"x_min":0,"x_max":0,"o":"m 21 260 l 21 174 b 171 -14 21 43 79 -14 b 322 174 263 -14 322 43 l 322 236 b 215 411 322 339 263 379 l 192 426 b 101 579 125 472 101 489 l 101 621 b 171 719 101 699 133 719 b 240 621 208 719 240 699 l 240 532 l 314 532 l 314 606 b 171 792 314 736 263 792 b 28 606 81 792 28 736 l 28 549 b 135 375 28 456 88 408 l 157 358 b 244 210 233 303 244 293 l 244 158 b 174 60 244 81 214 60 b 99 158 133 60 99 81 l 99 260 z "},"t":{"ha":296,"x_min":0,"x_max":0,"o":"m 14 778 l 14 706 l 89 706 l 89 139 b 221 -14 89 46 140 -14 b 282 -4 239 -14 260 -11 l 282 65 b 236 60 264 61 249 60 b 167 140 189 60 167 86 l 167 706 l 282 706 l 282 778 l 167 778 l 167 907 l 89 907 l 89 778 z "},"u":{"ha":361,"x_min":0,"x_max":0,"o":"m 333 778 l 256 778 l 256 276 b 161 58 256 132 224 58 b 106 150 122 58 106 86 l 106 778 l 28 778 l 28 139 b 129 -14 28 38 61 -14 b 253 126 193 -14 235 33 l 256 126 l 264 0 l 333 0 z "},"v":{"ha":351,"x_min":0,"x_max":0,"o":"m 122 0 l 232 0 l 340 778 l 267 778 l 179 58 l 176 58 l 90 778 l 11 778 z "},"w":{"ha":650,"x_min":0,"x_max":0,"o":"m 122 0 l 232 0 l 324 697 l 326 697 l 418 0 l 528 0 l 639 778 l 564 778 l 474 58 l 471 58 l 389 778 l 264 778 l 179 58 l 176 58 l 90 778 l 11 778 z "},"x":{"ha":361,"x_min":0,"x_max":0,"o":"m 6 0 l 85 0 l 179 379 l 182 379 l 276 0 l 356 0 l 242 421 l 349 778 l 269 778 l 182 463 l 179 463 l 92 778 l 13 778 l 119 421 z "},"y":{"ha":350,"x_min":0,"x_max":0,"o":"m 26 -200 l 43 -200 b 218 -46 157 -200 200 -167 l 340 778 l 267 778 l 179 79 l 176 79 l 89 778 l 10 778 l 128 11 b 135 -56 133 -22 135 -40 b 26 -128 135 -114 106 -128 z "},"z":{"ha":333,"x_min":0,"x_max":0,"o":"m 10 0 l 319 0 l 319 72 l 90 72 l 304 706 l 304 778 l 24 778 l 24 706 l 224 706 l 10 72 z "},"$":{"ha":375,"x_min":0,"x_max":0,"o":"m 21 336 l 21 181 b 157 -12 21 64 74 0 l 146 -137 l 229 -137 l 218 -12 b 354 181 301 0 354 64 l 354 300 b 232 513 354 422 283 476 l 208 529 b 108 715 131 585 108 606 l 108 804 b 188 907 108 882 144 907 b 267 804 231 907 267 882 l 267 649 l 346 649 l 346 790 b 218 982 346 907 296 969 l 229 1110 l 146 1110 l 157 982 b 29 790 79 969 29 907 l 29 685 b 154 469 29 563 99 511 l 176 453 b 271 269 254 394 271 379 l 271 167 b 188 64 271 90 233 64 b 104 167 142 64 104 89 l 104 336 z "},"D":{"ha":394,"x_min":0,"x_max":0,"o":"m 31 0 l 197 0 b 364 194 299 0 364 64 l 364 776 b 197 971 364 907 299 971 l 31 971 z m 114 78 l 114 893 l 197 893 b 281 790 243 893 281 868 l 281 181 b 197 78 281 103 243 78 z "},"ﬁ":{"ha":443,"x_min":0,"x_max":0,"o":"m 14 706 l 89 706 l 89 0 l 167 0 l 167 706 l 296 706 l 296 778 l 167 778 l 167 854 b 242 940 167 915 189 940 b 296 933 258 940 275 939 l 296 1003 b 228 1014 272 1010 249 1014 b 89 856 140 1014 89 956 l 89 778 l 14 778 z m 338 860 l 415 860 l 415 985 l 338 985 z m 338 0 l 415 0 l 415 778 l 338 778 z "},"…":{"ha":450,"x_min":0,"x_max":0,"o":"m 33 0 l 117 0 l 117 125 l 33 125 z m 183 0 l 267 0 l 267 125 l 183 125 z m 333 0 l 417 0 l 417 125 l 333 125 z "},"!":{"ha":150,"x_min":0,"x_max":0,"o":"m 54 208 l 96 208 l 117 832 l 117 971 l 33 971 l 33 832 z m 33 0 l 117 0 l 117 125 l 33 125 z "},".":{"ha":150,"x_min":0,"x_max":0,"o":"m 33 0 l 117 0 l 117 125 l 33 125 z "},",":{"ha":150,"x_min":0,"x_max":0,"o":"m -7 -189 l 35 -189 l 125 125 l 39 125 z "},":":{"ha":150,"x_min":0,"x_max":0,"o":"m 33 653 l 117 653 l 117 778 l 33 778 z m 33 0 l 117 0 l 117 125 l 33 125 z "},";":{"ha":150,"x_min":0,"x_max":0,"o":"m 33 653 l 117 653 l 117 778 l 33 778 z m -4 -189 l 38 -189 l 128 125 l 42 125 z "},"“":{"ha":325,"x_min":0,"x_max":0,"o":"m 151 971 l 118 971 l 33 657 l 119 657 z m 292 971 l 258 971 l 174 657 l 260 657 z "},"’":{"ha":185,"x_min":0,"x_max":0,"o":"m 33 657 l 67 657 l 151 971 l 65 971 z "},"‘":{"ha":185,"x_min":0,"x_max":0,"o":"m 151 972 l 118 972 l 33 658 l 119 658 z "},"?":{"ha":381,"x_min":0,"x_max":0,"o":"m 135 208 l 213 208 l 213 257 b 269 421 213 329 225 361 l 281 438 b 347 658 322 496 347 538 l 347 790 b 190 985 347 914 290 985 b 33 790 90 985 33 914 l 33 649 l 111 649 l 111 810 b 190 913 111 876 139 913 b 269 810 242 913 269 876 l 269 658 b 218 485 269 561 253 531 l 206 468 b 135 257 175 429 135 371 z m 132 0 l 215 0 l 215 125 l 132 125 z "},"|":{"ha":150,"x_min":0,"x_max":0,"o":"m 117 -251 l 117 1047 l 33 1047 l 33 -251 z "},"/":{"ha":240,"x_min":0,"x_max":0,"o":"m 97 -114 l 219 1011 l 136 1011 l 14 -114 z "},"\\":{"ha":240,"x_min":0,"x_max":0,"o":"m 136 -114 l 219 -114 l 97 1011 l 14 1011 z "},"⁄":{"ha":671,"x_min":0,"x_max":0,"o":"m 33 0 l 103 0 l 638 971 l 568 971 z "},"<":{"ha":331,"x_min":0,"x_max":0,"o":"m 297 481 l 297 558 l 33 460 l 33 390 l 297 292 l 297 369 l 114 424 l 114 426 z "},">":{"ha":331,"x_min":0,"x_max":0,"o":"m 33 369 l 33 292 l 297 390 l 297 460 l 33 558 l 33 481 l 217 426 l 217 424 z "},"%":{"ha":772,"x_min":0,"x_max":0,"o":"m 179 450 b 325 621 268 450 325 510 l 325 814 b 179 985 325 925 268 985 b 33 814 90 985 33 925 l 33 621 b 179 450 33 510 90 450 z m 136 0 l 218 0 l 635 971 l 553 971 z m 179 517 b 106 619 133 517 106 549 l 106 815 b 179 918 106 888 133 918 b 253 815 225 918 253 888 l 253 619 b 179 517 253 547 225 517 z m 592 -14 b 738 157 681 -14 738 46 l 738 350 b 592 521 738 461 681 521 b 446 350 503 521 446 461 l 446 157 b 592 -14 446 46 503 -14 z m 592 53 b 518 156 546 53 518 85 l 518 351 b 592 454 518 424 546 454 b 665 351 638 454 665 424 l 665 156 b 592 53 665 83 638 53 z "},"‰":{"ha":1119,"x_min":0,"x_max":0,"o":"m 179 450 b 325 621 268 450 325 510 l 325 814 b 179 985 325 925 268 985 b 33 814 90 985 33 925 l 33 621 b 179 450 33 510 90 450 z m 136 0 l 218 0 l 635 971 l 553 971 z m 179 517 b 106 619 133 517 106 549 l 106 815 b 179 918 106 888 133 918 b 253 815 225 918 253 888 l 253 619 b 179 517 253 547 225 517 z m 592 -14 b 738 157 681 -14 738 46 l 738 350 b 592 521 738 461 681 521 b 446 350 503 521 446 461 l 446 157 b 592 -14 446 46 503 -14 z m 939 -14 b 1085 157 1028 -14 1085 46 l 1085 350 b 939 521 1085 461 1028 521 b 793 350 850 521 793 461 l 793 157 b 939 -14 793 46 850 -14 z m 592 53 b 518 156 546 53 518 85 l 518 351 b 592 454 518 424 546 454 b 665 351 638 454 665 424 l 665 156 b 592 53 665 83 638 53 z m 939 53 b 865 156 893 53 865 85 l 865 351 b 939 454 865 424 893 454 b 1013 351 985 454 1013 424 l 1013 156 b 939 53 1013 83 985 53 z "},"«":{"ha":433,"x_min":0,"x_max":0,"o":"m 33 389 l 171 131 l 254 131 l 113 389 l 254 647 l 171 647 z m 197 389 l 335 131 l 418 131 l 276 389 l 418 647 l 335 647 z "},"»":{"ha":433,"x_min":0,"x_max":0,"o":"m 399 389 l 263 647 l 178 647 l 321 389 l 179 131 l 263 131 z m 235 389 l 99 647 l 14 647 l 157 389 l 15 131 l 99 131 z "},"^":{"ha":303,"x_min":0,"x_max":0,"o":"m 186 721 l 269 721 l 194 971 l 108 971 l 33 721 l 117 721 l 150 876 l 153 876 z "},"*":{"ha":407,"x_min":0,"x_max":0,"o":"m 79 703 l 135 663 l 204 778 l 275 664 l 331 704 l 243 806 l 374 838 l 353 903 l 228 850 l 238 985 l 168 985 l 181 850 l 56 900 l 35 835 l 165 806 z "},"#":{"ha":533,"x_min":0,"x_max":0,"o":"m 100 0 l 176 0 l 194 326 l 319 326 l 301 0 l 378 0 l 396 326 l 486 326 l 486 399 l 400 399 l 411 574 l 500 574 l 500 646 l 415 646 l 433 971 l 357 971 l 339 646 l 214 646 l 232 971 l 156 971 l 138 646 l 47 646 l 47 574 l 133 574 l 122 399 l 33 399 l 33 326 l 118 326 z m 199 399 l 210 574 l 335 574 l 324 399 z "},"[":{"ha":207,"x_min":0,"x_max":0,"o":"m 200 -265 l 200 -187 l 117 -187 l 117 983 l 200 983 l 200 1061 l 33 1061 l 33 -265 z "},"]":{"ha":207,"x_min":0,"x_max":0,"o":"m 7 1061 l 7 983 l 90 983 l 90 -187 l 7 -187 l 7 -265 l 174 -265 l 174 1061 z "},"(":{"ha":214,"x_min":0,"x_max":0,"o":"m 168 -283 l 228 -272 b 119 400 167 -36 119 182 b 228 1068 119 617 165 833 l 169 1079 b 35 400 79 801 35 600 b 168 -283 35 197 79 -4 z "},")":{"ha":214,"x_min":0,"x_max":0,"o":"m 44 1079 l -14 1068 b 94 396 47 832 94 614 b -15 -272 94 179 47 -37 l 44 -283 b 179 397 135 -6 179 196 b 44 1079 179 599 135 800 z "},"{":{"ha":311,"x_min":0,"x_max":0,"o":"m 214 890 b 264 983 214 978 231 983 l 304 983 l 304 1061 l 253 1061 b 131 889 194 1061 131 1021 l 131 533 b 33 438 131 471 117 438 l 33 360 b 131 264 117 360 131 326 l 131 -94 b 253 -265 131 -226 181 -265 l 304 -265 l 304 -187 l 264 -187 b 214 -94 231 -187 214 -168 l 214 219 b 139 397 214 349 186 393 l 139 400 b 214 578 186 404 214 449 z "},"}":{"ha":311,"x_min":0,"x_max":0,"o":"m 97 -94 b 47 -187 97 -182 81 -187 l 7 -187 l 7 -265 l 60 -265 b 181 -93 117 -265 181 -225 l 181 263 b 278 358 181 325 194 358 l 278 436 b 181 532 194 436 181 469 l 181 890 b 60 1061 181 1022 131 1061 l 7 1061 l 7 983 l 47 983 b 97 890 81 983 97 964 l 97 576 b 172 399 97 447 125 403 l 172 396 b 97 218 125 392 97 347 z "},"@":{"ha":808,"x_min":0,"x_max":0,"o":"m 479 157 b 625 25 485 72 560 25 b 775 176 692 25 775 75 l 775 635 b 404 985 775 868 590 985 b 33 635 219 985 33 868 l 33 108 b 324 -201 33 -107 163 -201 l 640 -201 l 640 -126 l 325 -126 b 111 108 194 -126 111 -51 l 111 624 b 404 910 111 814 258 910 b 697 624 551 910 697 814 l 697 185 b 625 100 697 128 661 100 b 553 185 589 100 553 128 l 553 701 l 482 701 l 475 590 l 472 590 b 360 715 457 679 418 715 b 247 550 283 715 247 653 l 247 197 b 363 32 247 94 285 32 b 476 157 421 32 461 68 z m 382 104 b 325 203 346 104 325 133 l 325 544 b 382 643 325 614 346 643 b 475 396 439 643 475 574 l 475 351 b 382 104 475 174 439 104 z "},"&":{"ha":531,"x_min":0,"x_max":0,"o":"m 418 0 l 504 0 l 504 3 l 431 154 b 460 464 453 233 460 338 l 460 508 l 382 508 l 382 464 b 376 267 382 389 381 324 l 247 533 b 367 804 331 633 367 715 b 221 985 367 915 311 985 b 69 813 131 985 69 914 b 157 544 69 740 97 668 b 19 236 64 440 19 339 b 226 -14 19 93 107 -14 b 383 72 290 -14 343 15 z m 214 603 b 153 807 178 685 153 749 b 221 910 153 869 179 910 b 289 797 264 910 289 867 b 214 603 289 728 264 663 z m 344 151 b 226 61 315 93 275 61 b 103 240 151 61 103 132 b 190 474 103 321 131 394 z "},"˜":{"ha":304,"x_min":0,"x_max":0,"o":"m 33 786 l 75 786 l 75 799 b 97 824 75 815 83 824 b 151 807 113 824 131 815 b 217 786 174 797 197 786 b 271 889 253 786 271 822 l 271 897 l 229 897 l 229 885 b 207 860 229 868 222 860 b 154 876 190 860 174 868 b 90 897 133 888 111 897 b 33 794 50 897 33 861 z "},"+":{"ha":400,"x_min":0,"x_max":0,"o":"m 367 468 l 242 468 l 242 607 l 158 607 l 158 468 l 33 468 l 33 390 l 158 390 l 158 251 l 242 251 l 242 390 l 367 390 z "},"-":{"ha":289,"x_min":0,"x_max":0,"o":"m 256 468 l 33 468 l 33 390 l 256 390 z "},"–":{"ha":553,"x_min":0,"x_max":0,"o":"m 519 468 l 33 468 l 33 390 l 519 390 z "},"—":{"ha":886,"x_min":0,"x_max":0,"o":"m 853 468 l 33 468 l 33 390 l 853 390 z "},"_":{"ha":344,"x_min":0,"x_max":0,"o":"m 311 0 l 33 0 l 33 -78 l 311 -78 z "},"=":{"ha":400,"x_min":0,"x_max":0,"o":"m 33 463 l 367 463 l 367 540 l 33 540 z m 33 310 l 367 310 l 367 388 l 33 388 z "},"•":{"ha":231,"x_min":0,"x_max":0,"o":"m 35 464 b 115 382 35 419 71 382 b 197 464 161 382 197 419 b 115 544 197 508 161 544 b 35 464 71 544 35 508 z "},"¡":{"ha":150,"x_min":0,"x_max":0,"o":"m 33 778 l 33 653 l 117 653 l 117 778 z m 54 569 l 33 -54 l 33 -193 l 117 -193 l 117 -54 l 96 569 z "},"†":{"ha":311,"x_min":0,"x_max":0,"o":"m 117 971 l 117 778 l 33 778 l 33 706 l 117 706 l 117 0 l 194 0 l 194 706 l 278 706 l 278 778 l 194 778 l 194 971 z "},"‡":{"ha":311,"x_min":0,"x_max":0,"o":"m 117 971 l 117 778 l 33 778 l 33 706 l 117 706 l 117 265 l 33 265 l 33 193 l 117 193 l 117 0 l 194 0 l 194 193 l 278 193 l 278 265 l 194 265 l 194 706 l 278 706 l 278 778 l 194 778 l 194 971 z "},"›":{"ha":269,"x_min":0,"x_max":0,"o":"m 235 389 l 99 646 l 14 646 l 157 389 l 15 131 l 99 131 z "},"‹":{"ha":269,"x_min":0,"x_max":0,"o":"m 33 389 l 171 131 l 254 131 l 113 389 l 254 647 l 171 647 z "},"ˆ":{"ha":260,"x_min":0,"x_max":0,"o":"m 99 772 l 129 949 l 132 949 l 163 772 l 226 772 l 176 996 l 85 996 l 35 772 z "},"°":{"ha":233,"x_min":0,"x_max":0,"o":"m 118 793 b 200 876 165 793 200 828 b 118 960 200 925 165 960 b 35 876 69 960 35 925 b 118 793 35 828 69 793 z m 117 919 b 156 878 140 919 156 903 b 118 833 156 851 139 833 b 79 878 96 833 79 853 b 117 919 79 903 94 919 z "},"'":{"ha":143,"x_min":0,"x_max":0,"o":"m 110 985 l 33 985 l 33 861 l 40 707 l 103 707 l 110 861 z "},"\"":{"ha":269,"x_min":0,"x_max":0,"o":"m 236 985 l 160 985 l 160 861 l 167 707 l 229 707 l 236 861 z m 110 985 l 33 985 l 33 861 l 40 707 l 103 707 l 110 861 z "},"‚":{"ha":176,"x_min":0,"x_max":0,"o":"m 33 -190 l 67 -190 l 151 125 l 65 125 z "},"„":{"ha":317,"x_min":0,"x_max":0,"o":"m 174 -189 l 207 -189 l 292 125 l 206 125 z m 33 -189 l 67 -189 l 151 125 l 65 125 z "},"~":{"ha":386,"x_min":0,"x_max":0,"o":"m 33 443 l 88 443 l 88 460 b 119 492 88 481 99 492 b 197 468 142 492 169 481 b 283 443 226 456 257 443 b 351 564 329 443 351 483 l 351 574 l 299 574 l 299 557 b 269 525 299 536 289 525 b 201 547 249 525 226 536 b 110 574 172 560 142 574 b 33 454 57 574 33 535 z "},"´":{"ha":194,"x_min":0,"x_max":0,"o":"m 89 772 l 160 996 l 78 996 l 33 772 z "},"`":{"ha":194,"x_min":0,"x_max":0,"o":"m 104 772 l 160 772 l 117 996 l 33 996 z "},"¨":{"ha":250,"x_min":0,"x_max":0,"o":"m 33 799 l 108 799 l 108 896 l 33 896 z m 140 799 l 215 799 l 215 896 l 140 896 z "},"˚":{"ha":264,"x_min":0,"x_max":0,"o":"m 33 872 b 132 776 33 808 81 776 b 231 872 183 776 231 808 b 132 969 231 938 183 969 b 33 872 81 969 33 938 z m 93 872 b 132 917 93 904 111 917 b 171 872 153 917 171 904 b 132 829 171 840 153 829 b 93 872 111 829 93 840 z "},"ˇ":{"ha":260,"x_min":0,"x_max":0,"o":"m 99 996 l 35 996 l 85 772 l 176 772 l 226 996 l 163 996 l 133 819 l 131 819 z "},"˘":{"ha":281,"x_min":0,"x_max":0,"o":"m 35 919 b 140 785 35 832 75 785 b 246 919 206 785 246 832 l 183 919 b 140 847 183 874 168 847 b 97 919 113 847 97 874 z "},"˝":{"ha":300,"x_min":0,"x_max":0,"o":"m 33 772 l 89 772 l 163 996 l 79 996 z m 136 772 l 192 772 l 265 996 l 182 996 z "},"˙":{"ha":142,"x_min":0,"x_max":0,"o":"m 108 799 l 108 894 l 33 894 l 33 799 z "},"˛":{"ha":239,"x_min":0,"x_max":0,"o":"m 206 -99 b 165 -103 193 -101 179 -103 b 97 -68 122 -103 97 -90 b 203 -10 97 -39 143 -17 l 197 1 b 33 -100 100 -3 33 -43 b 153 -178 33 -147 82 -178 b 206 -174 169 -178 188 -176 z "},"¸":{"ha":239,"x_min":0,"x_max":0,"o":"m 33 -171 b 92 -178 51 -175 74 -178 b 206 -104 158 -178 206 -147 b 100 -35 206 -62 164 -36 l 107 11 l 65 11 l 54 -67 b 133 -100 103 -67 133 -79 b 86 -125 133 -115 115 -125 b 33 -119 74 -125 56 -124 z "},"B":{"ha":385,"x_min":0,"x_max":0,"o":"m 31 0 l 197 0 b 364 197 304 0 364 71 l 364 354 b 251 514 364 438 329 504 l 251 517 b 360 676 328 528 360 592 l 360 779 b 193 971 360 901 300 971 l 31 971 z m 114 549 l 114 893 l 197 893 b 281 790 251 893 281 857 l 281 658 b 197 549 281 592 251 549 z m 114 78 l 114 474 l 197 474 b 281 364 251 474 281 431 l 281 181 b 197 78 281 114 251 78 z "},"C":{"ha":390,"x_min":0,"x_max":0,"o":"m 281 419 l 281 167 b 197 64 281 89 243 64 b 114 167 151 64 114 90 l 114 804 b 197 907 114 882 151 907 b 281 804 243 907 281 882 l 281 565 l 360 565 l 360 790 b 196 985 360 921 296 985 b 31 790 94 985 31 921 l 31 181 b 196 -14 31 50 94 -14 b 360 181 296 -14 360 50 l 360 419 z "},"A":{"ha":425,"x_min":0,"x_max":0,"o":"m 11 0 l 93 0 l 128 275 l 293 275 l 329 0 l 414 0 l 272 971 l 146 971 z m 138 353 l 207 913 l 210 913 l 283 353 z "},"±":{"ha":400,"x_min":0,"x_max":0,"o":"m 367 468 l 242 468 l 242 607 l 158 607 l 158 468 l 33 468 l 33 390 l 158 390 l 158 251 l 242 251 l 242 390 l 367 390 z m 367 181 l 33 181 l 33 103 l 367 103 z "},"ı":{"ha":175,"x_min":0,"x_max":0,"o":"m 49 0 l 126 0 l 126 778 l 49 778 z "},"·":{"ha":150,"x_min":0,"x_max":0,"o":"m 33 422 l 117 422 l 117 547 l 33 547 z "},"¯":{"ha":233,"x_min":0,"x_max":0,"o":"m 200 864 l 33 864 l 33 801 l 200 801 z "},"E":{"ha":308,"x_min":0,"x_max":0,"o":"m 288 893 l 288 971 l 31 971 l 31 0 l 294 0 l 294 78 l 114 78 l 114 475 l 276 475 l 276 550 l 114 550 l 114 893 z "},"F":{"ha":301,"x_min":0,"x_max":0,"o":"m 288 893 l 288 971 l 31 971 l 31 0 l 114 0 l 114 461 l 276 461 l 276 536 l 114 536 l 114 893 z "},"G":{"ha":390,"x_min":0,"x_max":0,"o":"m 306 147 l 317 0 l 360 0 l 360 522 l 183 522 l 183 447 l 276 447 l 276 181 b 192 64 276 114 249 64 b 114 167 143 64 114 100 l 114 804 b 197 907 114 871 143 907 b 281 804 251 907 281 871 l 281 593 l 360 593 l 360 790 b 196 985 360 915 301 985 b 31 790 90 985 31 914 l 31 181 b 175 -14 31 63 88 -14 b 303 147 247 -14 293 39 z "},"¿":{"ha":381,"x_min":0,"x_max":0,"o":"m 249 778 l 165 778 l 165 653 l 249 653 z m 246 569 l 168 569 l 168 521 b 111 357 168 449 156 417 l 100 340 b 33 119 58 282 33 240 l 33 -12 b 190 -207 33 -136 90 -207 b 347 -12 290 -207 347 -136 l 347 129 l 269 129 l 269 -32 b 190 -135 269 -99 242 -135 b 111 -32 139 -135 111 -99 l 111 119 b 163 293 111 217 128 247 l 175 310 b 246 521 206 350 246 407 z "},"¶":{"ha":536,"x_min":0,"x_max":0,"o":"m 503 971 l 425 971 l 425 0 l 503 0 z m 342 971 l 239 971 b 33 714 83 971 33 868 b 239 457 33 560 83 457 l 264 457 l 264 0 l 342 0 z "},"¬":{"ha":531,"x_min":0,"x_max":0,"o":"m 33 971 l 33 0 l 497 0 l 497 971 z m 267 553 l 158 901 l 372 901 l 269 553 z m 117 153 l 117 817 l 226 485 z m 414 157 l 310 485 l 414 814 z m 158 69 l 267 418 l 269 418 l 372 69 z "},"Þ":{"ha":390,"x_min":0,"x_max":0,"o":"m 31 0 l 114 0 l 114 217 l 193 217 b 360 411 294 217 360 281 l 360 560 b 193 754 360 690 294 754 l 114 754 l 114 971 l 31 971 z m 114 294 l 114 676 l 197 676 b 281 574 243 676 281 651 l 281 397 b 197 294 281 319 243 294 z "},"þ":{"ha":361,"x_min":0,"x_max":0,"o":"m 28 -207 l 106 -207 l 106 111 l 108 111 b 221 -14 124 22 163 -14 b 333 151 297 -14 333 49 l 333 626 b 221 792 333 729 297 792 b 108 667 163 792 124 756 l 106 667 l 106 1000 l 28 1000 z m 199 58 b 106 306 142 58 106 128 l 106 472 b 199 719 106 650 142 719 b 256 621 235 719 256 690 l 256 157 b 199 58 256 88 235 58 z "},"©":{"ha":651,"x_min":0,"x_max":0,"o":"m 325 -14 b 618 317 501 -14 618 118 l 618 654 b 325 983 618 851 501 983 b 33 654 150 983 33 853 l 33 317 b 325 -14 33 118 150 -14 z m 325 58 b 111 310 193 58 111 154 l 111 660 b 322 911 111 813 193 911 b 540 654 454 911 540 810 l 540 310 b 325 58 540 154 458 58 z m 328 254 b 267 346 294 254 267 268 l 267 622 b 328 714 267 700 294 714 b 389 622 361 714 389 700 l 389 543 l 463 543 l 463 607 b 326 786 463 738 410 786 b 189 607 243 786 189 738 l 189 363 b 326 182 189 232 243 182 b 463 363 410 182 463 232 l 463 435 l 389 435 l 389 346 b 328 254 389 268 361 254 z "},"®":{"ha":651,"x_min":0,"x_max":0,"o":"m 325 -14 b 618 317 501 -14 618 118 l 618 654 b 325 983 618 853 501 983 b 33 654 150 983 33 853 l 33 317 b 325 -14 33 118 150 -14 z m 325 58 b 111 310 193 58 111 154 l 111 660 b 322 911 111 813 194 911 b 540 654 454 911 540 810 l 540 310 b 325 58 540 154 458 58 z m 199 182 l 276 182 l 276 447 l 318 447 b 368 385 353 447 363 435 l 390 182 l 469 182 l 446 386 b 385 478 438 454 425 472 l 385 479 b 453 582 431 486 453 519 l 453 650 b 332 786 453 729 403 786 l 199 786 z m 276 517 l 276 714 l 328 714 b 379 650 361 714 379 692 l 379 581 b 328 517 379 539 361 517 z "},"ƒ":{"ha":378,"x_min":0,"x_max":0,"o":"m 14 -211 b 82 -221 38 -218 61 -221 b 221 -64 171 -221 221 -162 l 221 706 l 350 706 l 350 778 l 221 778 l 221 854 b 296 940 221 915 243 940 b 350 933 313 940 329 939 l 350 1004 b 282 1014 326 1011 303 1014 b 143 856 194 1014 143 956 l 143 778 l 68 778 l 68 706 l 143 706 l 143 -62 b 68 -147 143 -122 121 -147 b 14 -142 53 -147 35 -146 z "},"Œ":{"ha":558,"x_min":0,"x_max":0,"o":"m 364 78 l 364 475 l 526 475 l 526 550 l 364 550 l 364 893 l 538 893 l 538 971 l 197 971 b 31 776 96 971 31 907 l 31 194 b 197 0 31 64 96 0 l 544 0 l 544 78 z m 281 78 l 197 78 b 114 181 151 78 114 104 l 114 790 b 197 893 114 868 151 893 l 281 893 z "},"œ":{"ha":585,"x_min":0,"x_max":0,"o":"m 181 -14 b 293 38 229 -14 268 3 l 296 38 b 407 -14 321 3 360 -14 b 557 181 499 -14 557 50 l 557 301 l 483 301 l 483 164 b 408 58 483 86 450 58 b 333 164 367 58 333 86 l 333 365 l 557 365 l 557 599 b 407 792 557 729 499 792 b 296 742 360 792 321 775 l 293 742 b 181 792 268 775 229 792 b 28 599 88 792 28 729 l 28 181 b 181 -14 28 50 88 -14 z m 333 432 l 333 614 b 408 719 333 692 367 719 b 483 614 450 719 483 692 l 483 432 z m 181 58 b 106 164 139 58 106 86 l 106 614 b 181 719 106 692 139 719 b 256 614 222 719 256 692 l 256 164 b 181 58 256 86 222 58 z "},"€":{"ha":453,"x_min":0,"x_max":0,"o":"m 31 532 l 93 532 l 93 453 l 31 453 l 31 381 l 93 381 l 93 181 b 258 -14 93 50 157 -14 b 422 181 358 -14 422 50 l 422 308 l 343 308 l 343 167 b 260 64 343 89 306 64 b 176 167 214 64 176 90 l 176 381 l 336 381 l 350 453 l 176 453 l 176 532 l 350 532 l 364 604 l 176 604 l 176 804 b 260 907 176 882 214 907 b 343 804 306 907 343 882 l 343 676 l 422 676 l 422 790 b 258 985 422 921 358 985 b 93 790 157 985 93 921 l 93 604 l 31 604 z "},"™":{"ha":546,"x_min":0,"x_max":0,"o":"m 225 486 l 279 486 l 279 782 l 271 907 l 274 907 l 329 486 l 407 486 l 463 907 l 465 907 l 457 782 l 457 486 l 513 486 l 513 971 l 422 971 l 385 681 l 371 549 l 368 549 l 354 681 l 315 971 l 225 971 z m 89 486 l 144 486 l 144 918 l 200 918 l 200 971 l 33 971 l 33 918 l 89 918 z "},"¢":{"ha":357,"x_min":0,"x_max":0,"o":"m 181 58 b 106 164 139 58 106 86 l 106 614 b 181 719 106 692 139 719 b 256 614 222 719 256 692 l 256 463 l 329 463 l 329 599 b 208 789 329 715 283 776 l 221 917 l 138 917 l 149 789 b 28 599 75 776 28 714 l 28 181 b 149 -11 28 65 75 1 l 138 -139 l 221 -139 l 208 -11 b 329 181 283 1 329 65 l 329 329 l 256 329 l 256 164 b 181 58 256 86 222 58 z "},"Æ":{"ha":590,"x_min":0,"x_max":0,"o":"m 11 0 l 96 0 l 163 275 l 313 275 l 313 0 l 576 0 l 576 78 l 396 78 l 396 475 l 558 475 l 558 550 l 396 550 l 396 893 l 569 893 l 569 971 l 251 971 z m 182 353 l 310 883 l 313 883 l 313 353 z "},"æ":{"ha":585,"x_min":0,"x_max":0,"o":"m 263 111 b 407 -14 281 28 333 -14 b 557 181 499 -14 557 50 l 557 301 l 483 301 l 483 164 b 408 58 483 86 450 58 b 333 164 367 58 333 86 l 333 365 l 557 365 l 557 599 b 407 792 557 729 499 792 b 297 742 360 792 322 775 l 294 742 b 183 792 269 775 232 792 b 32 599 86 792 32 722 l 32 511 l 106 511 l 106 614 b 181 719 106 682 132 719 b 256 614 229 719 256 682 l 256 490 b 28 244 67 408 28 367 l 28 151 b 144 -14 28 49 65 -14 b 260 111 204 -14 244 22 z m 333 432 l 333 614 b 408 719 333 692 367 719 b 483 614 450 719 483 692 l 483 432 z m 256 417 l 256 306 b 163 58 256 128 219 58 b 106 157 126 58 106 88 l 106 251 b 256 417 106 335 124 356 z "},"÷":{"ha":400,"x_min":0,"x_max":0,"o":"m 169 510 l 232 510 l 232 604 l 169 604 z m 368 468 l 35 468 l 35 390 l 368 390 z m 169 254 l 232 254 l 232 349 l 169 349 z "},"¤":{"ha":531,"x_min":0,"x_max":0,"o":"m 33 971 l 33 0 l 497 0 l 497 971 z m 267 553 l 158 901 l 372 901 l 269 553 z m 117 153 l 117 817 l 226 485 z m 414 157 l 310 485 l 414 814 z m 158 69 l 267 418 l 269 418 l 372 69 z "},"£":{"ha":443,"x_min":0,"x_max":0,"o":"m 31 0 l 413 0 l 413 72 l 72 72 b 196 401 144 144 194 250 l 382 401 l 382 474 l 193 474 b 182 593 192 507 188 547 l 178 635 b 167 775 174 672 167 729 b 250 907 167 868 192 907 b 333 804 306 907 333 872 l 333 636 l 413 636 l 413 790 b 247 985 413 913 351 985 b 83 778 143 985 83 911 b 96 617 83 740 88 685 l 101 575 b 111 474 104 546 108 511 l 40 474 l 40 401 l 117 401 b 118 343 118 382 118 361 b 31 64 118 206 90 115 z "},"¥":{"ha":411,"x_min":0,"x_max":0,"o":"m 368 431 l 268 431 l 400 971 l 318 971 l 211 463 l 208 463 l 96 971 l 11 971 l 147 431 l 49 431 l 49 358 l 167 358 l 167 306 l 49 306 l 49 233 l 167 233 l 167 0 l 250 0 l 250 233 l 368 233 l 368 306 l 250 306 l 250 356 l 251 358 l 368 358 z "},"Ł":{"ha":289,"x_min":0,"x_max":0,"o":"m 31 971 l 31 531 l -31 506 l -1 435 l 31 447 l 31 0 l 281 0 l 281 78 l 114 78 l 114 481 l 204 517 l 175 589 l 114 564 l 114 971 z "},"ł":{"ha":211,"x_min":0,"x_max":0,"o":"m 67 0 l 144 0 l 144 474 l 210 500 l 181 572 l 144 558 l 144 999 l 67 999 l 67 526 l 0 500 l 29 428 l 67 443 z "},"Đ":{"ha":394,"x_min":0,"x_max":0,"o":"m 31 0 l 197 0 b 364 194 299 0 364 64 l 364 776 b 197 971 364 907 299 971 l 31 971 l 31 550 l -10 550 l -10 475 l 31 475 z m 114 78 l 114 475 l 213 475 l 213 550 l 114 550 l 114 893 l 197 893 b 281 790 243 893 281 868 l 281 181 b 197 78 281 103 243 78 z "},"×":{"ha":397,"x_min":0,"x_max":0,"o":"m 364 319 l 256 428 l 364 535 l 304 594 l 197 486 l 89 594 l 33 539 l 142 431 l 33 324 l 93 264 l 200 372 l 308 264 z "},"¦":{"ha":150,"x_min":0,"x_max":0,"o":"m 117 476 l 117 1042 l 33 1042 l 33 476 z m 117 -257 l 117 310 l 33 310 l 33 -257 z "},"§":{"ha":343,"x_min":0,"x_max":0,"o":"m 21 126 l 21 32 b 171 -156 21 -99 79 -156 b 322 32 263 -156 322 -99 l 322 94 b 276 219 322 153 303 192 b 322 367 306 250 322 299 l 322 429 b 215 604 322 532 263 572 l 192 619 b 101 772 125 665 101 682 l 101 814 b 171 913 101 892 133 913 b 240 814 208 913 240 892 l 240 726 l 314 726 l 314 799 b 171 985 314 929 263 985 b 28 799 81 985 28 929 l 28 742 b 76 617 28 686 49 647 b 28 464 44 588 28 538 l 28 407 b 135 233 28 314 88 267 l 157 217 b 244 68 233 161 244 151 l 244 17 b 174 -82 244 -61 214 -82 b 99 17 133 -82 99 -61 l 99 126 z m 218 267 b 215 269 217 268 217 268 l 192 285 b 101 438 125 331 101 347 l 101 479 b 135 568 101 529 114 556 l 157 551 b 244 403 233 496 244 486 l 244 351 b 218 267 244 307 235 281 z "},"²":{"ha":272,"x_min":0,"x_max":0,"o":"m 33 419 l 239 419 l 239 478 l 97 478 l 97 533 b 151 651 97 608 122 628 l 168 665 b 239 825 200 690 239 722 l 239 875 b 140 985 239 946 203 985 b 40 875 76 985 40 946 l 40 789 l 104 789 l 104 872 b 140 926 104 911 117 926 b 175 872 163 926 175 911 l 175 825 b 121 711 175 756 151 735 l 106 697 b 33 533 74 671 33 638 z "},"³":{"ha":272,"x_min":0,"x_max":0,"o":"m 33 619 l 33 518 b 136 406 33 446 69 406 b 239 518 201 406 239 446 l 239 626 b 174 711 239 676 217 706 l 174 714 b 239 799 217 721 239 749 l 239 872 b 136 985 239 944 201 985 b 33 872 69 985 33 944 l 33 803 l 97 803 l 97 871 b 136 926 97 908 110 926 b 175 871 163 926 175 908 l 175 790 b 138 742 175 756 165 742 l 106 742 l 106 683 l 138 683 b 175 635 165 683 175 671 l 175 519 b 136 464 175 482 163 464 b 97 519 110 464 97 482 l 97 619 z "},"¹":{"ha":181,"x_min":0,"x_max":0,"o":"m 147 419 l 147 985 l 92 985 b 35 929 92 939 78 929 l 35 876 l 82 876 l 82 419 z "},"ª":{"ha":300,"x_min":0,"x_max":0,"o":"m 211 456 l 267 456 l 267 856 b 153 985 267 939 226 985 b 36 856 78 985 36 939 l 36 801 l 97 801 l 97 856 b 151 926 97 900 117 926 b 203 856 185 926 203 901 l 203 785 b 33 618 63 729 33 700 l 33 565 b 117 446 33 493 67 446 b 201 531 157 446 189 476 l 204 531 z m 203 728 l 203 628 b 142 507 203 550 182 507 b 97 578 113 507 97 529 l 97 618 b 203 728 97 675 111 689 z "},"º":{"ha":300,"x_min":0,"x_max":0,"o":"m 151 446 b 267 581 224 446 267 493 l 267 851 b 151 985 267 939 224 985 b 33 851 78 985 33 939 l 33 581 b 151 446 33 493 78 446 z m 151 504 b 97 579 122 504 97 528 l 97 851 b 151 926 97 903 122 926 b 203 851 179 926 203 903 l 203 579 b 151 504 203 528 179 504 z "},"¼":{"ha":651,"x_min":0,"x_max":0,"o":"m 188 419 l 188 985 l 132 985 b 75 929 132 939 118 929 l 75 876 l 122 876 l 122 419 z m 33 0 l 103 0 l 638 971 l 568 971 z m 399 126 l 511 126 l 511 0 l 575 0 l 575 126 l 611 126 l 611 185 l 575 185 l 575 551 l 475 551 l 399 185 z m 460 185 l 517 496 l 518 496 l 511 185 z "},"½":{"ha":675,"x_min":0,"x_max":0,"o":"m 188 419 l 188 985 l 132 985 b 75 929 132 939 118 929 l 75 876 l 122 876 l 122 419 z m 33 0 l 103 0 l 638 971 l 568 971 z m 438 0 l 642 0 l 642 58 l 501 58 l 501 114 b 556 232 501 189 526 208 l 571 246 b 642 406 603 271 642 303 l 642 456 b 543 565 642 526 606 565 b 444 456 481 565 444 526 l 444 369 l 508 369 l 508 453 b 543 507 508 492 521 507 b 578 453 565 507 578 492 l 578 406 b 525 292 578 336 554 315 l 510 278 b 438 114 478 251 438 218 z "},"¾":{"ha":679,"x_min":0,"x_max":0,"o":"m 33 619 l 33 518 b 136 406 33 446 69 406 b 239 518 201 406 239 446 l 239 626 b 174 711 239 676 217 706 l 174 714 b 239 799 218 721 239 749 l 239 872 b 136 985 239 944 201 985 b 33 872 69 985 33 944 l 33 803 l 97 803 l 97 871 b 136 926 97 908 110 926 b 175 871 163 926 175 908 l 175 790 b 138 742 175 756 165 742 l 106 742 l 106 683 l 138 683 b 175 635 165 683 175 671 l 175 519 b 136 464 175 482 163 464 b 97 519 110 464 97 482 l 97 619 z m 42 0 l 111 0 l 646 971 l 576 971 z m 404 126 l 515 126 l 515 0 l 579 0 l 579 126 l 615 126 l 615 185 l 579 185 l 579 551 l 481 551 l 404 185 z m 465 185 l 521 496 l 522 496 l 515 185 z "},"ß":{"ha":404,"x_min":0,"x_max":0,"o":"m 31 0 l 114 0 l 114 808 b 182 935 114 903 143 935 b 254 822 228 935 254 896 b 161 543 254 685 161 654 b 300 201 161 407 300 347 b 190 78 300 125 261 78 l 161 78 l 161 0 l 190 0 b 383 204 306 0 383 82 b 244 540 383 368 244 442 b 332 824 244 618 332 671 b 185 1013 332 943 279 1013 b 31 804 93 1013 31 949 z "},"Ø":{"ha":394,"x_min":0,"x_max":0,"o":"m 197 -14 b 364 181 299 -14 364 50 l 364 790 b 329 922 364 847 351 890 l 350 1013 l 307 1013 l 294 957 b 197 985 268 975 235 985 b 31 790 96 985 31 921 l 31 181 b 65 49 31 125 43 81 l 44 -42 l 88 -42 l 100 14 b 197 -14 126 -4 160 -14 z m 114 208 l 114 804 b 197 907 114 882 151 907 b 263 876 224 907 247 899 z m 197 64 b 132 94 171 64 147 72 l 281 763 l 281 167 b 197 64 281 89 243 64 z "},"ø":{"ha":361,"x_min":0,"x_max":0,"o":"m 181 -14 b 333 181 274 -14 333 50 l 333 599 b 307 722 333 650 324 692 l 331 819 l 281 819 l 268 767 b 181 792 243 783 214 792 b 28 599 88 792 28 729 l 28 181 b 54 56 28 128 38 86 l 31 -42 l 81 -42 l 94 11 b 181 -14 118 -6 147 -14 z m 106 204 l 106 614 b 181 719 106 692 139 719 b 238 692 203 719 224 711 z m 181 58 b 124 86 158 58 138 67 l 256 574 l 256 164 b 181 58 256 86 222 58 z "},"đ":{"ha":361,"x_min":0,"x_max":0,"o":"m 333 0 l 333 832 l 375 832 l 375 904 l 333 904 l 333 999 l 256 999 l 256 904 l 167 904 l 167 832 l 256 832 l 256 667 l 253 667 b 140 792 238 756 199 792 b 28 626 64 792 28 729 l 28 151 b 140 -14 28 49 64 -14 b 253 111 199 -14 238 22 l 256 111 l 263 0 z m 163 58 b 106 157 126 58 106 88 l 106 621 b 163 719 106 690 126 719 b 256 472 219 719 256 650 l 256 306 b 163 58 256 128 219 58 z "},"Ã":{"ha":425,"x_min":0,"x_max":0,"o":"m 90 1028 l 132 1028 l 132 1040 b 154 1065 132 1057 140 1065 b 208 1049 169 1065 188 1057 b 274 1028 231 1039 254 1028 b 328 1131 310 1028 328 1064 l 328 1139 l 286 1139 l 286 1126 b 264 1101 286 1110 279 1101 b 211 1118 247 1101 231 1110 b 147 1139 190 1129 168 1139 b 90 1036 107 1139 90 1103 z m 11 0 l 93 0 l 128 275 l 293 275 l 329 0 l 414 0 l 272 971 l 146 971 z m 138 353 l 207 913 l 210 913 l 283 353 z "},"Â":{"ha":425,"x_min":0,"x_max":0,"o":"m 179 1014 l 210 1190 l 213 1190 l 243 1014 l 307 1014 l 257 1238 l 165 1238 l 115 1014 z m 11 0 l 93 0 l 128 275 l 293 275 l 329 0 l 414 0 l 272 971 l 146 971 z m 138 353 l 207 913 l 210 913 l 283 353 z "},"Á":{"ha":425,"x_min":0,"x_max":0,"o":"m 231 1014 l 301 1238 l 219 1238 l 175 1014 z m 11 0 l 93 0 l 128 275 l 293 275 l 329 0 l 414 0 l 272 971 l 146 971 z m 138 353 l 207 913 l 210 913 l 283 353 z "},"À":{"ha":425,"x_min":0,"x_max":0,"o":"m 189 1014 l 244 1014 l 201 1238 l 118 1238 z m 11 0 l 93 0 l 128 275 l 293 275 l 329 0 l 414 0 l 272 971 l 146 971 z m 138 353 l 207 913 l 210 913 l 283 353 z "},"Ä":{"ha":425,"x_min":0,"x_max":0,"o":"m 118 1040 l 193 1040 l 193 1138 l 118 1138 z m 225 1040 l 300 1040 l 300 1138 l 225 1138 z m 11 0 l 93 0 l 128 275 l 293 275 l 329 0 l 414 0 l 272 971 l 146 971 z m 138 353 l 207 913 l 210 913 l 282 353 z "},"Å":{"ha":425,"x_min":0,"x_max":0,"o":"m 111 1115 b 210 1018 111 1050 158 1018 b 308 1115 260 1018 308 1050 b 210 1211 308 1179 260 1211 b 111 1115 158 1211 111 1179 z m 171 1114 b 210 1158 171 1146 189 1158 b 247 1114 229 1158 247 1146 b 210 1071 247 1083 229 1071 b 171 1114 189 1071 171 1083 z m 11 0 l 93 0 l 126 275 l 294 275 l 329 0 l 414 0 l 272 971 l 146 971 z m 136 353 l 207 913 l 210 913 l 283 353 z "},"Ç":{"ha":390,"x_min":0,"x_max":0,"o":"m 281 419 l 281 167 b 197 64 281 89 243 64 b 114 167 151 64 114 90 l 114 804 b 197 907 114 882 151 907 b 281 804 243 907 281 882 l 281 565 l 360 565 l 360 790 b 196 985 360 921 296 985 b 31 790 94 985 31 921 l 31 181 b 174 -12 31 60 86 -4 l 165 -67 b 244 -100 214 -67 244 -79 b 197 -125 244 -115 226 -125 b 144 -119 185 -125 167 -124 l 144 -171 b 203 -178 163 -175 185 -178 b 317 -104 269 -178 317 -147 b 211 -35 317 -62 275 -36 l 215 -12 b 360 181 304 -6 360 58 l 360 419 z "},"Ê":{"ha":308,"x_min":0,"x_max":0,"o":"m 126 1014 l 157 1190 l 160 1190 l 190 1014 l 254 1014 l 204 1238 l 113 1238 l 63 1014 z m 288 893 l 288 971 l 31 971 l 31 0 l 294 0 l 294 78 l 114 78 l 114 475 l 276 475 l 276 550 l 114 550 l 114 893 z "},"É":{"ha":308,"x_min":0,"x_max":0,"o":"m 178 1014 l 249 1238 l 167 1238 l 122 1014 z m 288 893 l 288 971 l 31 971 l 31 0 l 294 0 l 294 78 l 114 78 l 114 475 l 276 475 l 276 550 l 114 550 l 114 893 z "},"È":{"ha":308,"x_min":0,"x_max":0,"o":"m 136 1014 l 192 1014 l 149 1238 l 65 1238 z m 288 893 l 288 971 l 31 971 l 31 0 l 294 0 l 294 78 l 114 78 l 114 475 l 276 475 l 276 550 l 114 550 l 114 893 z "},"Ë":{"ha":308,"x_min":0,"x_max":0,"o":"m 65 1040 l 140 1040 l 140 1138 l 65 1138 z m 172 1040 l 247 1040 l 247 1138 l 172 1138 z m 288 893 l 288 971 l 31 971 l 31 0 l 294 0 l 294 78 l 114 78 l 114 475 l 276 475 l 276 550 l 114 550 l 114 893 z "},"Î":{"ha":144,"x_min":0,"x_max":0,"o":"m 42 1014 l 72 1190 l 75 1190 l 106 1014 l 169 1014 l 119 1238 l 28 1238 l -24 1014 z m 31 971 l 31 0 l 114 0 l 114 971 z "},"Í":{"ha":144,"x_min":0,"x_max":0,"o":"m 93 1014 l 164 1238 l 82 1238 l 38 1014 z m 31 971 l 31 0 l 114 0 l 114 971 z "},"Ì":{"ha":144,"x_min":0,"x_max":0,"o":"m 51 1014 l 107 1014 l 64 1238 l -19 1238 z m 31 971 l 31 0 l 114 0 l 114 971 z "},"Ï":{"ha":144,"x_min":0,"x_max":0,"o":"m -19 1040 l 56 1040 l 56 1138 l -19 1138 z m 88 1040 l 163 1040 l 163 1138 l 88 1138 z m 31 971 l 31 0 l 114 0 l 114 971 z "},"Ñ":{"ha":436,"x_min":0,"x_max":0,"o":"m 97 1028 l 139 1028 l 139 1040 b 161 1065 139 1057 147 1065 b 215 1049 176 1065 194 1057 b 281 1028 238 1039 261 1028 b 335 1131 317 1028 335 1064 l 335 1139 l 293 1139 l 293 1126 b 271 1101 293 1110 286 1101 b 218 1118 254 1101 238 1110 b 154 1139 197 1129 175 1139 b 97 1036 114 1139 97 1103 z m 31 971 l 31 0 l 114 0 l 114 535 l 93 899 l 96 899 l 292 0 l 406 0 l 406 971 l 322 971 l 322 438 l 347 86 l 344 86 l 151 971 z "},"Õ":{"ha":394,"x_min":0,"x_max":0,"o":"m 78 1028 l 119 1028 l 119 1040 b 142 1065 119 1057 128 1065 b 196 1049 157 1065 175 1057 b 261 1028 218 1039 242 1028 b 315 1131 297 1028 315 1064 l 315 1139 l 274 1139 l 274 1126 b 251 1101 274 1110 267 1101 b 199 1118 235 1101 218 1110 b 135 1139 178 1129 156 1139 b 78 1036 94 1139 78 1103 z m 197 -14 b 364 181 299 -14 364 50 l 364 790 b 197 985 364 921 299 985 b 31 790 96 985 31 921 l 31 181 b 197 -14 31 50 96 -14 z m 197 64 b 114 167 151 64 114 90 l 114 804 b 197 907 114 882 151 907 b 281 804 243 907 281 882 l 281 167 b 197 64 281 89 243 64 z "},"Ô":{"ha":394,"x_min":0,"x_max":0,"o":"m 167 1014 l 197 1190 l 200 1190 l 231 1014 l 294 1014 l 244 1238 l 153 1238 l 103 1014 z m 197 -14 b 364 181 299 -14 364 50 l 364 790 b 197 985 364 921 299 985 b 31 790 96 985 31 921 l 31 181 b 197 -14 31 50 96 -14 z m 197 64 b 114 167 151 64 114 90 l 114 804 b 197 907 114 882 151 907 b 281 804 243 907 281 882 l 281 167 b 197 64 281 89 243 64 z "},"Ó":{"ha":394,"x_min":0,"x_max":0,"o":"m 218 1014 l 289 1238 l 207 1238 l 163 1014 z m 197 -14 b 364 181 299 -14 364 50 l 364 790 b 197 985 364 921 299 985 b 31 790 96 985 31 921 l 31 181 b 197 -14 31 50 96 -14 z m 197 64 b 114 167 151 64 114 90 l 114 804 b 197 907 114 882 151 907 b 281 804 243 907 281 882 l 281 167 b 197 64 281 89 243 64 z "},"Ò":{"ha":394,"x_min":0,"x_max":0,"o":"m 176 1014 l 232 1014 l 189 1238 l 106 1238 z m 197 -14 b 364 181 299 -14 364 50 l 364 790 b 197 985 364 921 299 985 b 31 790 96 985 31 921 l 31 181 b 197 -14 31 50 96 -14 z m 197 64 b 114 167 151 64 114 90 l 114 804 b 197 907 114 882 151 907 b 281 804 243 907 281 882 l 281 167 b 197 64 281 89 243 64 z "},"Ö":{"ha":394,"x_min":0,"x_max":0,"o":"m 106 1040 l 181 1040 l 181 1138 l 106 1138 z m 213 1040 l 288 1040 l 288 1138 l 213 1138 z m 197 -14 b 364 181 299 -14 364 50 l 364 790 b 197 985 364 921 299 985 b 31 790 96 985 31 921 l 31 181 b 197 -14 31 50 96 -14 z m 197 64 b 114 167 151 64 114 90 l 114 804 b 197 907 114 882 151 907 b 281 804 243 907 281 882 l 281 167 b 197 64 281 89 243 64 z "},"Û":{"ha":394,"x_min":0,"x_max":0,"o":"m 167 1014 l 197 1190 l 200 1190 l 231 1014 l 294 1014 l 244 1238 l 153 1238 l 103 1014 z m 31 971 l 31 168 b 197 -14 31 46 96 -14 b 364 168 299 -14 364 46 l 364 971 l 281 971 l 281 167 b 197 64 281 89 243 64 b 114 167 151 64 114 90 l 114 971 z "},"Ú":{"ha":394,"x_min":0,"x_max":0,"o":"m 218 1014 l 289 1238 l 207 1238 l 163 1014 z m 31 971 l 31 168 b 197 -14 31 46 96 -14 b 364 168 299 -14 364 46 l 364 971 l 281 971 l 281 167 b 197 64 281 89 243 64 b 114 167 151 64 114 90 l 114 971 z "},"Ù":{"ha":394,"x_min":0,"x_max":0,"o":"m 176 1014 l 232 1014 l 189 1238 l 106 1238 z m 31 971 l 31 168 b 197 -14 31 46 96 -14 b 364 168 299 -14 364 46 l 364 971 l 281 971 l 281 167 b 197 64 281 89 243 64 b 114 167 151 64 114 90 l 114 971 z "},"Ü":{"ha":394,"x_min":0,"x_max":0,"o":"m 106 1040 l 181 1040 l 181 1138 l 106 1138 z m 213 1040 l 288 1040 l 288 1138 l 213 1138 z m 31 971 l 31 168 b 197 -14 31 46 96 -14 b 364 168 299 -14 364 46 l 364 971 l 281 971 l 281 167 b 197 64 281 89 243 64 b 114 167 151 64 114 90 l 114 971 z "},"Ý":{"ha":411,"x_min":0,"x_max":0,"o":"m 229 1014 l 300 1238 l 218 1238 l 174 1014 z m 400 971 l 318 971 l 211 463 l 208 463 l 96 971 l 11 971 l 167 356 l 167 0 l 250 0 l 250 356 z "},"ã":{"ha":361,"x_min":0,"x_max":0,"o":"m 64 835 l 106 835 l 106 847 b 128 872 106 864 114 872 b 182 856 143 872 161 864 b 247 835 204 846 228 835 b 301 938 283 835 301 871 l 301 946 l 260 946 l 260 933 b 238 908 260 917 253 908 b 185 925 221 908 204 917 b 121 946 164 936 142 946 b 64 843 81 946 64 910 z m 263 0 l 333 0 l 333 599 b 183 792 333 724 281 792 b 32 599 86 792 32 722 l 32 511 l 106 511 l 106 614 b 181 719 106 682 132 719 b 256 614 229 719 256 682 l 256 490 b 28 244 67 408 28 367 l 28 151 b 140 -14 28 49 64 -14 b 253 111 199 -14 238 22 l 256 111 z m 256 417 l 256 306 b 163 58 256 128 219 58 b 106 157 126 58 106 88 l 106 251 b 256 417 106 335 124 356 z "},"â":{"ha":361,"x_min":0,"x_max":0,"o":"m 153 821 l 183 997 l 186 997 l 217 821 l 281 821 l 231 1044 l 139 1044 l 89 821 z m 263 0 l 333 0 l 333 599 b 183 792 333 724 281 792 b 32 599 86 792 32 722 l 32 511 l 106 511 l 106 614 b 181 719 106 682 132 719 b 256 614 229 719 256 682 l 256 490 b 28 244 67 408 28 367 l 28 151 b 140 -14 28 49 64 -14 b 253 111 199 -14 238 22 l 256 111 z m 256 417 l 256 306 b 163 58 256 128 219 58 b 106 157 126 58 106 88 l 106 251 b 256 417 106 335 124 356 z "},"á":{"ha":361,"x_min":0,"x_max":0,"o":"m 204 821 l 275 1044 l 193 1044 l 149 821 z m 263 0 l 333 0 l 333 599 b 183 792 333 724 281 792 b 32 599 86 792 32 722 l 32 511 l 106 511 l 106 614 b 181 719 106 682 132 719 b 256 614 229 719 256 682 l 256 490 b 28 244 67 408 28 367 l 28 151 b 140 -14 28 49 64 -14 b 253 111 199 -14 238 22 l 256 111 z m 256 417 l 256 306 b 163 58 256 128 219 58 b 106 157 126 58 106 88 l 106 251 b 256 417 106 335 124 356 z "},"à":{"ha":361,"x_min":0,"x_max":0,"o":"m 163 821 l 218 821 l 175 1044 l 92 1044 z m 263 0 l 333 0 l 333 599 b 183 792 333 724 281 792 b 32 599 86 792 32 722 l 32 511 l 106 511 l 106 614 b 181 719 106 682 132 719 b 256 614 229 719 256 682 l 256 490 b 28 244 67 408 28 367 l 28 151 b 140 -14 28 49 64 -14 b 253 111 199 -14 238 22 l 256 111 z m 256 417 l 256 306 b 163 58 256 128 219 58 b 106 157 126 58 106 88 l 106 251 b 256 417 106 335 124 356 z "},"ä":{"ha":361,"x_min":0,"x_max":0,"o":"m 92 847 l 167 847 l 167 944 l 92 944 z m 199 847 l 274 847 l 274 944 l 199 944 z m 263 0 l 333 0 l 333 599 b 183 792 333 724 281 792 b 32 599 86 792 32 722 l 32 511 l 106 511 l 106 614 b 181 719 106 682 132 719 b 256 614 229 719 256 682 l 256 490 b 28 244 67 408 28 367 l 28 151 b 140 -14 28 49 64 -14 b 253 111 199 -14 238 22 l 256 111 z m 256 417 l 256 306 b 163 58 256 128 219 58 b 106 157 126 58 106 88 l 106 251 b 256 417 106 335 124 356 z "},"å":{"ha":361,"x_min":0,"x_max":0,"o":"m 85 921 b 183 825 85 857 132 825 b 282 921 233 825 282 857 b 183 1018 282 986 233 1018 b 85 921 132 1018 85 986 z m 144 921 b 183 965 144 953 164 965 b 222 921 203 965 222 953 b 183 878 222 890 203 878 b 144 921 164 878 144 890 z m 263 0 l 333 0 l 333 599 b 183 792 333 724 281 792 b 32 599 86 792 32 722 l 32 511 l 106 511 l 106 614 b 181 719 106 682 132 719 b 256 614 229 719 256 682 l 256 490 b 28 244 67 408 28 367 l 28 151 b 140 -14 28 49 64 -14 b 253 111 199 -14 238 22 l 256 111 z m 256 417 l 256 306 b 163 58 256 128 219 58 b 106 157 126 58 106 88 l 106 251 b 256 417 106 335 124 356 z "},"ç":{"ha":357,"x_min":0,"x_max":0,"o":"m 181 58 b 106 164 139 58 106 86 l 106 614 b 181 719 106 692 139 719 b 256 614 222 719 256 692 l 256 463 l 329 463 l 329 599 b 179 792 329 729 271 792 b 28 599 88 792 28 729 l 28 181 b 157 -12 28 61 78 -3 l 149 -67 b 228 -100 197 -67 228 -79 b 181 -125 228 -115 210 -125 b 128 -119 168 -125 150 -124 l 128 -171 b 186 -178 146 -175 168 -178 b 300 -104 253 -178 300 -147 b 194 -35 300 -62 258 -36 l 199 -12 b 329 181 279 -4 329 60 l 329 329 l 256 329 l 256 164 b 181 58 256 86 222 58 z "},"ê":{"ha":357,"x_min":0,"x_max":0,"o":"m 149 821 l 179 997 l 182 997 l 213 821 l 276 821 l 226 1044 l 135 1044 l 85 821 z m 181 58 b 106 164 139 58 106 86 l 106 365 l 329 365 l 329 599 b 179 792 329 729 271 792 b 28 599 88 792 28 729 l 28 181 b 179 -14 28 50 88 -14 b 329 181 271 -14 329 50 l 329 301 l 256 301 l 256 164 b 181 58 256 86 222 58 z m 106 432 l 106 614 b 181 719 106 692 139 719 b 256 614 222 719 256 692 l 256 432 z "},"é":{"ha":357,"x_min":0,"x_max":0,"o":"m 200 821 l 271 1044 l 189 1044 l 144 821 z m 181 58 b 106 164 139 58 106 86 l 106 365 l 329 365 l 329 599 b 179 792 329 729 271 792 b 28 599 88 792 28 729 l 28 181 b 179 -14 28 50 88 -14 b 329 181 271 -14 329 50 l 329 301 l 256 301 l 256 164 b 181 58 256 86 222 58 z m 106 432 l 106 614 b 181 719 106 692 139 719 b 256 614 222 719 256 692 l 256 432 z "},"è":{"ha":357,"x_min":0,"x_max":0,"o":"m 158 821 l 214 821 l 171 1044 l 88 1044 z m 181 58 b 106 164 139 58 106 86 l 106 365 l 329 365 l 329 599 b 179 792 329 729 271 792 b 28 599 88 792 28 729 l 28 181 b 179 -14 28 50 88 -14 b 329 181 271 -14 329 50 l 329 301 l 256 301 l 256 164 b 181 58 256 86 222 58 z m 106 432 l 106 614 b 181 719 106 692 139 719 b 256 614 222 719 256 692 l 256 432 z "},"ë":{"ha":357,"x_min":0,"x_max":0,"o":"m 88 847 l 163 847 l 163 944 l 88 944 z m 194 847 l 269 847 l 269 944 l 194 944 z m 181 58 b 106 164 139 58 106 86 l 106 365 l 329 365 l 329 599 b 179 792 329 729 271 792 b 28 599 88 792 28 729 l 28 181 b 179 -14 28 50 88 -14 b 329 181 271 -14 329 50 l 329 301 l 256 301 l 256 164 b 181 58 256 86 222 58 z m 106 432 l 106 614 b 181 719 106 692 139 719 b 256 614 222 719 256 692 l 256 432 z "},"ñ":{"ha":361,"x_min":0,"x_max":0,"o":"m 61 835 l 103 835 l 103 847 b 125 872 103 864 111 872 b 179 856 140 872 158 864 b 244 835 201 846 225 835 b 299 938 281 835 299 871 l 299 946 l 257 946 l 257 933 b 235 908 257 917 250 908 b 182 925 218 908 201 917 b 118 946 161 936 139 946 b 61 843 78 946 61 910 z m 28 0 l 106 0 l 106 501 b 200 719 106 646 138 719 b 256 628 239 719 256 692 l 256 0 l 333 0 l 333 639 b 232 792 333 740 300 792 b 108 651 168 792 126 744 l 106 651 l 97 778 l 28 778 z "},"õ":{"ha":361,"x_min":0,"x_max":0,"o":"m 61 835 l 103 835 l 103 847 b 125 872 103 864 111 872 b 179 856 140 872 158 864 b 244 835 201 846 225 835 b 299 938 281 835 299 871 l 299 946 l 257 946 l 257 933 b 235 908 257 917 250 908 b 182 925 218 908 201 917 b 118 946 161 936 139 946 b 61 843 78 946 61 910 z m 181 -14 b 333 181 274 -14 333 50 l 333 599 b 181 792 333 729 274 792 b 28 599 88 792 28 729 l 28 181 b 181 -14 28 50 88 -14 z m 181 58 b 106 164 139 58 106 86 l 106 614 b 181 719 106 692 139 719 b 256 614 222 719 256 692 l 256 164 b 181 58 256 86 222 58 z "},"ô":{"ha":361,"x_min":0,"x_max":0,"o":"m 150 821 l 181 997 l 183 997 l 214 821 l 278 821 l 228 1044 l 136 1044 l 86 821 z m 181 -14 b 333 181 274 -14 333 50 l 333 599 b 181 792 333 729 274 792 b 28 599 88 792 28 729 l 28 181 b 181 -14 28 50 88 -14 z m 181 58 b 106 164 139 58 106 86 l 106 614 b 181 719 106 692 139 719 b 256 614 222 719 256 692 l 256 164 b 181 58 256 86 222 58 z "},"ó":{"ha":361,"x_min":0,"x_max":0,"o":"m 201 821 l 272 1044 l 190 1044 l 146 821 z m 181 -14 b 333 181 274 -14 333 50 l 333 599 b 181 792 333 729 274 792 b 28 599 88 792 28 729 l 28 181 b 181 -14 28 50 88 -14 z m 181 58 b 106 164 139 58 106 86 l 106 614 b 181 719 106 692 139 719 b 256 614 222 719 256 692 l 256 164 b 181 58 256 86 222 58 z "},"ò":{"ha":361,"x_min":0,"x_max":0,"o":"m 160 821 l 215 821 l 172 1044 l 89 1044 z m 181 -14 b 333 181 274 -14 333 50 l 333 599 b 181 792 333 729 274 792 b 28 599 88 792 28 729 l 28 181 b 181 -14 28 50 88 -14 z m 181 58 b 106 164 139 58 106 86 l 106 614 b 181 719 106 692 139 719 b 256 614 222 719 256 692 l 256 164 b 181 58 256 86 222 58 z "},"ö":{"ha":361,"x_min":0,"x_max":0,"o":"m 89 847 l 164 847 l 164 944 l 89 944 z m 196 847 l 271 847 l 271 944 l 196 944 z m 181 -14 b 333 181 274 -14 333 50 l 333 599 b 181 792 333 729 274 792 b 28 599 88 792 28 729 l 28 181 b 181 -14 28 50 88 -14 z m 181 58 b 106 164 139 58 106 86 l 106 614 b 181 719 106 692 139 719 b 256 614 222 719 256 692 l 256 164 b 181 58 256 86 222 58 z "},"û":{"ha":361,"x_min":0,"x_max":0,"o":"m 150 821 l 181 997 l 183 997 l 214 821 l 278 821 l 228 1044 l 136 1044 l 86 821 z m 333 778 l 256 778 l 256 276 b 161 58 256 132 224 58 b 106 150 122 58 106 86 l 106 778 l 28 778 l 28 139 b 129 -14 28 38 61 -14 b 253 126 193 -14 235 33 l 256 126 l 264 0 l 333 0 z "},"ú":{"ha":361,"x_min":0,"x_max":0,"o":"m 201 821 l 272 1044 l 190 1044 l 146 821 z m 333 778 l 256 778 l 256 276 b 161 58 256 132 224 58 b 106 150 122 58 106 86 l 106 778 l 28 778 l 28 139 b 129 -14 28 38 61 -14 b 253 126 193 -14 235 33 l 256 126 l 264 0 l 333 0 z "},"ù":{"ha":361,"x_min":0,"x_max":0,"o":"m 160 821 l 215 821 l 172 1044 l 89 1044 z m 333 778 l 256 778 l 256 276 b 161 58 256 132 224 58 b 106 150 122 58 106 86 l 106 778 l 28 778 l 28 139 b 129 -14 28 38 61 -14 b 253 126 193 -14 235 33 l 256 126 l 264 0 l 333 0 z "},"ü":{"ha":361,"x_min":0,"x_max":0,"o":"m 89 847 l 164 847 l 164 944 l 89 944 z m 196 847 l 271 847 l 271 944 l 196 944 z m 333 778 l 256 778 l 256 276 b 161 58 256 132 224 58 b 106 150 122 58 106 86 l 106 778 l 28 778 l 28 139 b 129 -14 28 38 61 -14 b 253 126 193 -14 235 33 l 256 126 l 264 0 l 333 0 z "},"î":{"ha":175,"x_min":0,"x_max":0,"o":"m 56 821 l 86 997 l 89 997 l 119 821 l 183 821 l 133 1044 l 42 1044 l -10 821 z m 49 0 l 126 0 l 126 778 l 49 778 z "},"ì":{"ha":175,"x_min":0,"x_max":0,"o":"m 65 821 l 121 821 l 78 1044 l -6 1044 z m 49 0 l 126 0 l 126 778 l 49 778 z "},"ï":{"ha":175,"x_min":0,"x_max":0,"o":"m -6 847 l 69 847 l 69 944 l -6 944 z m 103 847 l 178 847 l 178 944 l 103 944 z m 49 0 l 126 0 l 126 778 l 49 778 z "},"ý":{"ha":350,"x_min":0,"x_max":0,"o":"m 199 821 l 269 1044 l 188 1044 l 143 821 z m 26 -200 l 43 -200 b 218 -46 157 -200 200 -167 l 340 778 l 267 778 l 179 79 l 176 79 l 89 778 l 10 778 l 128 11 b 135 -56 133 -22 135 -40 b 26 -128 135 -114 106 -128 z "},"ÿ":{"ha":350,"x_min":0,"x_max":0,"o":"m 86 847 l 161 847 l 161 944 l 86 944 z m 193 847 l 268 847 l 268 944 l 193 944 z m 26 -200 l 43 -200 b 218 -46 156 -200 200 -167 l 340 778 l 267 778 l 179 79 l 176 79 l 89 778 l 10 778 l 128 11 b 135 -56 132 -22 135 -40 b 26 -128 135 -114 106 -128 z "},"Ă":{"ha":425,"x_min":0,"x_max":0,"o":"m 104 1161 b 210 1026 104 1072 144 1026 b 315 1161 275 1026 315 1072 l 253 1161 b 210 1089 253 1115 238 1089 b 167 1161 182 1089 167 1115 z m 11 0 l 93 0 l 128 275 l 293 275 l 329 0 l 414 0 l 272 971 l 146 971 z m 138 353 l 207 913 l 210 913 l 283 353 z "},"Ā":{"ha":425,"x_min":0,"x_max":0,"o":"m 293 1106 l 126 1106 l 126 1043 l 293 1043 z m 11 0 l 93 0 l 128 275 l 293 275 l 329 0 l 414 0 l 272 971 l 146 971 z m 138 353 l 207 913 l 210 913 l 283 353 z "},"Ą":{"ha":425,"x_min":0,"x_max":0,"o":"m 11 0 l 93 0 l 128 275 l 293 275 l 329 0 l 336 0 b 244 -90 279 -17 244 -49 b 364 -168 244 -137 293 -168 b 417 -164 381 -168 399 -167 l 417 -89 b 376 -93 404 -92 390 -93 b 308 -58 333 -93 308 -81 b 414 0 308 -29 354 -7 l 272 971 l 146 971 z m 138 353 l 207 913 l 210 913 l 283 353 z "},"ă":{"ha":361,"x_min":0,"x_max":0,"o":"m 78 968 b 183 833 78 879 118 833 b 289 968 249 833 289 879 l 226 968 b 183 896 226 922 211 896 b 140 968 156 896 140 922 z m 263 0 l 333 0 l 333 599 b 183 792 333 724 281 792 b 32 599 86 792 32 722 l 32 511 l 106 511 l 106 614 b 181 719 106 682 132 719 b 256 614 229 719 256 682 l 256 490 b 28 244 67 408 28 367 l 28 151 b 140 -14 28 49 64 -14 b 253 111 199 -14 238 22 l 256 111 z m 256 417 l 256 306 b 163 58 256 128 219 58 b 106 157 126 58 106 88 l 106 251 b 256 417 106 335 124 356 z "},"ā":{"ha":361,"x_min":0,"x_max":0,"o":"m 267 913 l 100 913 l 100 850 l 267 850 z m 263 0 l 333 0 l 333 599 b 183 792 333 724 281 792 b 32 599 86 792 32 722 l 32 511 l 106 511 l 106 614 b 181 719 106 682 132 719 b 256 614 229 719 256 682 l 256 490 b 28 244 67 408 28 367 l 28 151 b 140 -14 28 49 64 -14 b 253 111 199 -14 238 22 l 256 111 z m 256 417 l 256 306 b 163 58 256 128 219 58 b 106 157 126 58 106 88 l 106 251 b 256 417 106 335 124 356 z "},"ą":{"ha":361,"x_min":0,"x_max":0,"o":"m 336 -89 b 296 -93 324 -92 310 -93 b 228 -58 253 -93 228 -81 b 333 0 228 -29 274 -7 l 333 599 b 183 792 333 724 281 792 b 32 599 86 792 32 722 l 32 511 l 106 511 l 106 614 b 181 719 106 682 132 719 b 256 614 229 719 256 682 l 256 490 b 28 244 67 408 28 367 l 28 151 b 140 -14 28 49 64 -14 b 253 111 199 -14 238 22 l 256 111 l 263 1 b 164 -90 201 -14 164 -47 b 283 -168 164 -137 213 -168 b 336 -164 300 -168 318 -167 z m 256 417 l 256 306 b 163 58 256 128 219 58 b 106 157 126 58 106 88 l 106 251 b 256 417 106 335 124 356 z "},"Ĉ":{"ha":390,"x_min":0,"x_max":0,"o":"m 164 1014 l 194 1190 l 197 1190 l 228 1014 l 292 1014 l 242 1238 l 150 1238 l 100 1014 z m 281 419 l 281 167 b 197 64 281 89 243 64 b 114 167 151 64 114 90 l 114 804 b 197 907 114 882 151 907 b 281 804 243 907 281 882 l 281 565 l 360 565 l 360 790 b 196 985 360 921 296 985 b 31 790 94 985 31 921 l 31 181 b 196 -14 31 50 94 -14 b 360 181 296 -14 360 50 l 360 419 z "},"Ć":{"ha":390,"x_min":0,"x_max":0,"o":"m 217 1014 l 288 1238 l 206 1238 l 161 1014 z m 281 419 l 281 167 b 197 64 281 89 243 64 b 114 167 151 64 114 90 l 114 804 b 197 907 114 882 151 907 b 281 804 243 907 281 882 l 281 565 l 360 565 l 360 790 b 196 985 360 921 296 985 b 31 790 94 985 31 921 l 31 181 b 196 -14 31 50 94 -14 b 360 181 296 -14 360 50 l 360 419 z "},"Č":{"ha":390,"x_min":0,"x_max":0,"o":"m 163 1238 l 99 1238 l 149 1014 l 240 1014 l 290 1238 l 226 1238 l 197 1061 l 194 1061 z m 281 419 l 281 167 b 197 64 281 89 243 64 b 114 167 151 64 114 90 l 114 804 b 197 907 114 882 151 907 b 281 804 243 907 281 882 l 281 565 l 360 565 l 360 790 b 196 985 360 921 296 985 b 31 790 94 985 31 921 l 31 181 b 196 -14 31 50 94 -14 b 360 181 296 -14 360 50 l 360 419 z "},"Ċ":{"ha":390,"x_min":0,"x_max":0,"o":"m 233 1040 l 233 1136 l 158 1136 l 158 1040 z m 281 419 l 281 167 b 199 64 281 89 244 64 b 114 167 151 64 114 90 l 114 804 b 199 907 114 882 151 907 b 281 804 244 907 281 882 l 281 565 l 360 565 l 360 790 b 196 985 360 921 296 985 b 31 790 94 985 31 921 l 31 181 b 196 -14 31 50 94 -14 b 360 181 296 -14 360 50 l 360 419 z "},"ĉ":{"ha":357,"x_min":0,"x_max":0,"o":"m 149 821 l 179 997 l 182 997 l 213 821 l 276 821 l 226 1044 l 135 1044 l 85 821 z m 181 58 b 106 164 139 58 106 86 l 106 614 b 181 719 106 692 139 719 b 256 614 222 719 256 692 l 256 463 l 329 463 l 329 599 b 179 792 329 729 271 792 b 28 599 88 792 28 729 l 28 181 b 179 -14 28 50 88 -14 b 329 181 271 -14 329 50 l 329 329 l 256 329 l 256 164 b 181 58 256 86 222 58 z "},"ć":{"ha":357,"x_min":0,"x_max":0,"o":"m 200 821 l 271 1044 l 189 1044 l 144 821 z m 181 58 b 106 164 139 58 106 86 l 106 614 b 181 719 106 692 139 719 b 256 614 222 719 256 692 l 256 463 l 329 463 l 329 599 b 179 792 329 729 271 792 b 28 599 88 792 28 729 l 28 181 b 179 -14 28 50 88 -14 b 329 181 271 -14 329 50 l 329 329 l 256 329 l 256 164 b 181 58 256 86 222 58 z "},"č":{"ha":357,"x_min":0,"x_max":0,"o":"m 147 1044 l 83 1044 l 133 821 l 225 821 l 275 1044 l 211 1044 l 182 868 l 179 868 z m 181 58 b 106 164 139 58 106 86 l 106 614 b 181 719 106 692 139 719 b 256 614 222 719 256 692 l 256 463 l 329 463 l 329 599 b 179 792 329 729 271 792 b 28 599 88 792 28 729 l 28 181 b 179 -14 28 50 88 -14 b 329 181 271 -14 329 50 l 329 329 l 256 329 l 256 164 b 181 58 256 86 222 58 z "},"ċ":{"ha":357,"x_min":0,"x_max":0,"o":"m 217 847 l 217 943 l 142 943 l 142 847 z m 181 58 b 106 164 139 58 106 86 l 106 614 b 181 719 106 692 139 719 b 256 614 222 719 256 692 l 256 463 l 329 463 l 329 599 b 179 792 329 729 271 792 b 28 599 88 792 28 729 l 28 181 b 179 -14 28 50 88 -14 b 329 181 271 -14 329 50 l 329 329 l 256 329 l 256 164 b 181 58 256 86 222 58 z "},"Ď":{"ha":394,"x_min":0,"x_max":0,"o":"m 154 1238 l 90 1238 l 140 1014 l 232 1014 l 282 1238 l 218 1238 l 189 1061 l 186 1061 z m 31 0 l 197 0 b 364 194 299 0 364 64 l 364 776 b 197 971 364 907 299 971 l 31 971 z m 114 78 l 114 893 l 197 893 b 281 790 243 893 281 868 l 281 181 b 197 78 281 103 243 78 z "},"ď":{"ha":361,"x_min":0,"x_max":0,"o":"m 333 0 l 333 999 l 256 999 l 256 667 l 253 667 b 140 792 238 756 199 792 b 28 626 64 792 28 729 l 28 151 b 140 -14 28 49 64 -14 b 253 111 199 -14 238 22 l 256 111 l 263 0 z m 369 726 l 414 726 l 465 999 l 390 999 z m 163 58 b 106 157 126 58 106 88 l 106 621 b 163 719 106 690 126 719 b 256 472 219 719 256 650 l 256 306 b 163 58 256 128 219 58 z "},"Ĕ":{"ha":308,"x_min":0,"x_max":0,"o":"m 51 1163 b 157 1026 51 1074 92 1026 b 263 1163 222 1026 263 1074 l 200 1163 b 157 1089 200 1115 185 1089 b 114 1163 129 1089 114 1115 z m 288 893 l 288 971 l 31 971 l 31 0 l 294 0 l 294 78 l 114 78 l 114 475 l 276 475 l 276 550 l 114 550 l 114 893 z "},"Ė":{"ha":308,"x_min":0,"x_max":0,"o":"m 194 1040 l 194 1136 l 119 1136 l 119 1040 z m 288 893 l 288 971 l 31 971 l 31 0 l 294 0 l 294 78 l 114 78 l 114 475 l 276 475 l 276 550 l 114 550 l 114 893 z "},"Ē":{"ha":308,"x_min":0,"x_max":0,"o":"m 240 1106 l 74 1106 l 74 1043 l 240 1043 z m 288 893 l 288 971 l 31 971 l 31 0 l 294 0 l 294 78 l 114 78 l 114 475 l 276 475 l 276 550 l 114 550 l 114 893 z "},"Ę":{"ha":308,"x_min":0,"x_max":0,"o":"m 288 893 l 288 971 l 31 971 l 31 0 l 215 0 b 124 -90 158 -17 124 -49 b 243 -168 124 -137 172 -168 b 296 -164 260 -168 278 -167 l 296 -89 b 256 -93 283 -92 269 -93 b 188 -58 213 -93 188 -81 b 293 0 188 -29 233 -7 l 294 0 l 294 78 l 114 78 l 114 475 l 276 475 l 276 550 l 114 550 l 114 893 z "},"ę":{"ha":357,"x_min":0,"x_max":0,"o":"m 181 58 b 106 164 139 58 106 86 l 106 365 l 329 365 l 329 599 b 179 792 329 729 271 792 b 28 599 88 792 28 729 l 28 181 b 161 -12 28 58 79 -6 b 111 -89 129 -32 111 -58 b 231 -172 111 -140 158 -172 b 283 -168 246 -172 265 -171 l 283 -93 b 243 -97 271 -96 257 -97 b 175 -58 200 -97 175 -83 b 217 -10 175 -39 192 -22 b 329 181 286 7 329 69 l 329 301 l 256 301 l 256 164 b 181 58 256 86 222 58 z m 106 432 l 106 614 b 181 719 106 692 139 719 b 256 614 222 719 256 692 l 256 432 z "},"ě":{"ha":357,"x_min":0,"x_max":0,"o":"m 147 1044 l 83 1044 l 133 821 l 225 821 l 275 1044 l 211 1044 l 182 868 l 179 868 z m 181 58 b 106 164 139 58 106 86 l 106 365 l 329 365 l 329 599 b 179 792 329 729 271 792 b 28 599 88 792 28 729 l 28 181 b 179 -14 28 50 88 -14 b 329 181 271 -14 329 50 l 329 301 l 256 301 l 256 164 b 181 58 256 86 222 58 z m 106 432 l 106 614 b 181 719 106 692 139 719 b 256 614 222 719 256 692 l 256 432 z "},"ĕ":{"ha":357,"x_min":0,"x_max":0,"o":"m 74 968 b 179 833 74 879 114 833 b 285 968 244 833 285 879 l 222 968 b 179 896 222 922 207 896 b 136 968 151 896 136 922 z m 181 58 b 106 164 139 58 106 86 l 106 365 l 329 365 l 329 599 b 179 792 329 729 271 792 b 28 599 88 792 28 729 l 28 181 b 179 -14 28 50 88 -14 b 329 181 271 -14 329 50 l 329 301 l 256 301 l 256 164 b 181 58 256 86 222 58 z m 106 432 l 106 614 b 181 719 106 692 139 719 b 256 614 222 719 256 692 l 256 432 z "},"ė":{"ha":357,"x_min":0,"x_max":0,"o":"m 217 847 l 217 943 l 142 943 l 142 847 z m 181 58 b 106 164 139 58 106 86 l 106 365 l 329 365 l 329 599 b 179 792 329 729 271 792 b 28 599 88 792 28 729 l 28 181 b 179 -14 28 50 88 -14 b 329 181 271 -14 329 50 l 329 301 l 256 301 l 256 164 b 181 58 256 86 222 58 z m 106 432 l 106 614 b 181 719 106 692 139 719 b 256 614 222 719 256 692 l 256 432 z "},"ē":{"ha":357,"x_min":0,"x_max":0,"o":"m 263 913 l 96 913 l 96 850 l 263 850 z m 181 58 b 106 164 139 58 106 86 l 106 365 l 329 365 l 329 599 b 179 792 329 729 271 792 b 28 599 88 792 28 729 l 28 181 b 179 -14 28 50 88 -14 b 329 181 271 -14 329 50 l 329 301 l 256 301 l 256 164 b 181 58 256 86 222 58 z m 106 432 l 106 614 b 181 719 106 692 139 719 b 256 614 222 719 256 692 l 256 432 z "},"Ě":{"ha":308,"x_min":0,"x_max":0,"o":"m 125 1238 l 61 1238 l 111 1014 l 203 1014 l 253 1238 l 189 1238 l 160 1061 l 157 1061 z m 288 893 l 288 971 l 31 971 l 31 0 l 294 0 l 294 78 l 114 78 l 114 475 l 276 475 l 276 550 l 114 550 l 114 893 z "},"Ĝ":{"ha":390,"x_min":0,"x_max":0,"o":"m 164 1014 l 194 1190 l 197 1190 l 228 1014 l 292 1014 l 242 1238 l 150 1238 l 100 1014 z m 306 147 l 317 0 l 360 0 l 360 522 l 183 522 l 183 447 l 276 447 l 276 181 b 192 64 276 114 249 64 b 114 167 143 64 114 100 l 114 804 b 197 907 114 871 143 907 b 281 804 251 907 281 871 l 281 593 l 360 593 l 360 790 b 196 985 360 915 301 985 b 31 790 90 985 31 914 l 31 181 b 175 -14 31 63 88 -14 b 303 147 247 -14 293 39 z "},"Ğ":{"ha":390,"x_min":0,"x_max":0,"o":"m 90 1163 b 196 1026 90 1074 131 1026 b 301 1163 261 1026 301 1074 l 239 1163 b 196 1089 239 1115 224 1089 b 153 1163 168 1089 153 1115 z m 306 147 l 317 0 l 360 0 l 360 522 l 183 522 l 183 447 l 276 447 l 276 181 b 192 64 276 114 249 64 b 114 167 143 64 114 100 l 114 804 b 197 907 114 871 143 907 b 281 804 251 907 281 871 l 281 593 l 360 593 l 360 790 b 196 985 360 915 301 985 b 31 790 90 985 31 914 l 31 181 b 175 -14 31 63 88 -14 b 303 147 247 -14 293 39 z "},"Ġ":{"ha":390,"x_min":0,"x_max":0,"o":"m 233 1040 l 233 1136 l 158 1136 l 158 1040 z m 306 147 l 317 0 l 360 0 l 360 522 l 183 522 l 183 447 l 276 447 l 276 181 b 192 64 276 114 249 64 b 114 167 143 64 114 100 l 114 804 b 197 907 114 871 143 907 b 281 804 251 907 281 871 l 281 593 l 360 593 l 360 790 b 196 985 360 915 301 985 b 31 790 90 985 31 914 l 31 181 b 175 -14 31 63 88 -14 b 303 147 247 -14 293 39 z "},"Ģ":{"ha":390,"x_min":0,"x_max":0,"o":"m 306 147 l 317 0 l 360 0 l 360 522 l 183 522 l 183 447 l 276 447 l 276 181 b 192 64 276 114 249 64 b 114 167 143 64 114 100 l 114 804 b 197 907 114 871 143 907 b 281 804 251 907 281 871 l 281 593 l 360 593 l 360 790 b 196 985 360 915 301 985 b 31 790 90 985 31 914 l 31 181 b 175 -14 31 63 88 -14 b 303 147 247 -14 293 39 z m 143 -207 l 185 -207 l 238 -40 l 157 -40 z "},"ĝ":{"ha":361,"x_min":0,"x_max":0,"o":"m 136 821 l 167 997 l 169 997 l 200 821 l 264 821 l 214 1044 l 122 1044 l 72 821 z m 35 0 l 35 -26 b 185 -221 35 -157 94 -221 b 333 -26 275 -221 333 -157 l 333 778 l 263 778 l 256 667 l 253 667 b 140 792 238 756 199 792 b 28 626 64 792 28 729 l 28 207 b 140 42 28 104 64 42 b 253 167 199 42 238 78 l 256 167 l 256 -42 b 182 -147 256 -119 222 -147 b 108 -42 142 -147 108 -119 l 108 0 z m 163 114 b 106 213 126 114 106 143 l 106 621 b 163 719 106 690 126 719 b 256 472 219 719 256 650 l 256 361 b 163 114 256 183 219 114 z "},"ğ":{"ha":361,"x_min":0,"x_max":0,"o":"m 61 968 b 167 833 61 879 101 833 b 272 968 232 833 272 879 l 210 968 b 167 896 210 922 194 896 b 124 968 139 896 124 922 z m 35 0 l 35 -26 b 185 -221 35 -157 94 -221 b 333 -26 275 -221 333 -157 l 333 778 l 263 778 l 256 667 l 253 667 b 140 792 238 756 199 792 b 28 626 64 792 28 729 l 28 207 b 140 42 28 104 64 42 b 253 167 199 42 238 78 l 256 167 l 256 -42 b 182 -147 256 -119 222 -147 b 108 -42 142 -147 108 -119 l 108 0 z m 163 114 b 106 213 126 114 106 143 l 106 621 b 163 719 106 690 126 719 b 256 472 219 719 256 650 l 256 361 b 163 114 256 183 219 114 z "},"ġ":{"ha":361,"x_min":0,"x_max":0,"o":"m 204 847 l 204 943 l 129 943 l 129 847 z m 35 0 l 35 -26 b 185 -221 35 -157 94 -221 b 333 -26 275 -221 333 -157 l 333 778 l 263 778 l 256 667 l 253 667 b 140 792 238 756 199 792 b 28 626 64 792 28 729 l 28 207 b 140 42 28 104 64 42 b 253 167 199 42 238 78 l 256 167 l 256 -42 b 182 -147 256 -119 222 -147 b 108 -42 142 -147 108 -119 l 108 0 z m 163 114 b 106 213 126 114 106 143 l 106 621 b 163 719 106 690 126 719 b 256 472 219 719 256 650 l 256 361 b 163 114 256 183 219 114 z "},"ģ":{"ha":361,"x_min":0,"x_max":0,"o":"m 218 986 l 176 986 l 124 819 l 204 819 z m 35 0 l 35 -26 b 185 -221 35 -157 94 -221 b 333 -26 275 -221 333 -157 l 333 778 l 263 778 l 256 667 l 253 667 b 140 792 238 756 199 792 b 28 626 64 792 28 729 l 28 207 b 140 42 28 104 64 42 b 253 167 199 42 238 78 l 256 167 l 256 -42 b 182 -147 256 -119 222 -147 b 108 -42 142 -147 108 -119 l 108 0 z m 163 114 b 106 213 126 114 106 143 l 106 621 b 163 719 106 690 126 719 b 256 472 219 719 256 650 l 256 361 b 163 114 256 183 219 114 z "},"Ĥ":{"ha":394,"x_min":0,"x_max":0,"o":"m 167 1014 l 197 1190 l 200 1190 l 231 1014 l 294 1014 l 244 1238 l 153 1238 l 103 1014 z m 281 971 l 281 551 l 114 551 l 114 971 l 31 971 l 31 0 l 114 0 l 114 474 l 281 474 l 281 0 l 364 0 l 364 971 z "},"ĥ":{"ha":361,"x_min":0,"x_max":0,"o":"m 32 1028 l 63 1204 l 65 1204 l 96 1028 l 160 1028 l 110 1251 l 18 1251 l -33 1028 z m 28 0 l 106 0 l 106 501 b 200 719 106 646 138 719 b 256 628 239 719 256 692 l 256 0 l 333 0 l 333 639 b 232 792 333 740 300 792 b 108 651 168 792 126 744 l 106 651 l 106 999 l 28 999 z "},"Ħ":{"ha":394,"x_min":0,"x_max":0,"o":"m 281 971 l 281 817 l 114 817 l 114 971 l 31 971 l 31 817 l -11 817 l -11 739 l 31 739 l 31 0 l 114 0 l 114 474 l 281 474 l 281 0 l 364 0 l 364 739 l 406 739 l 406 817 l 364 817 l 364 971 z m 114 551 l 114 739 l 281 739 l 281 551 z "},"ħ":{"ha":361,"x_min":0,"x_max":0,"o":"m 28 0 l 106 0 l 106 501 b 200 719 106 646 138 719 b 256 628 239 719 256 692 l 256 0 l 333 0 l 333 639 b 232 792 333 740 300 792 b 108 651 168 792 126 744 l 106 651 l 106 832 l 194 832 l 194 904 l 106 904 l 106 999 l 28 999 l 28 904 l -14 904 l -14 832 l 28 832 z "},"Ĩ":{"ha":144,"x_min":0,"x_max":0,"o":"m -47 1028 l -6 1028 l -6 1040 b 17 1065 -6 1057 3 1065 b 71 1049 32 1065 50 1057 b 136 1028 93 1039 117 1028 b 190 1131 172 1028 190 1064 l 190 1139 l 149 1139 l 149 1126 b 126 1101 149 1110 142 1101 b 74 1118 110 1101 93 1110 b 10 1139 53 1129 31 1139 b -47 1036 -31 1139 -47 1103 z m 31 971 l 31 0 l 114 0 l 114 971 z "},"Ĭ":{"ha":144,"x_min":0,"x_max":0,"o":"m -33 1161 b 72 1026 -33 1072 7 1026 b 178 1161 138 1026 178 1072 l 115 1161 b 72 1089 115 1114 100 1089 b 29 1161 44 1089 29 1114 z m 31 971 l 31 0 l 114 0 l 114 971 z "},"İ":{"ha":144,"x_min":0,"x_max":0,"o":"m 110 1040 l 110 1136 l 35 1136 l 35 1040 z m 31 971 l 31 0 l 114 0 l 114 971 z "},"Ī":{"ha":144,"x_min":0,"x_max":0,"o":"m 156 1106 l -11 1106 l -11 1043 l 156 1043 z m 31 971 l 31 0 l 114 0 l 114 971 z "},"Į":{"ha":144,"x_min":0,"x_max":0,"o":"m 31 971 l 31 0 l 35 0 b -57 -90 -22 -17 -57 -49 b 63 -168 -57 -137 -8 -168 b 115 -164 79 -168 97 -167 l 115 -89 b 75 -93 103 -92 89 -93 b 7 -58 32 -93 7 -81 b 113 0 7 -29 53 -7 l 114 0 l 114 971 z "},"į":{"ha":133,"x_min":0,"x_max":0,"o":"m 28 860 l 106 860 l 106 985 l 28 985 z m 107 -89 b 67 -93 94 -92 81 -93 b -1 -58 24 -93 -1 -81 b 104 0 -1 -29 44 -7 l 106 0 l 106 778 l 28 778 l 28 0 b -65 -90 -29 -15 -65 -49 b 54 -168 -65 -137 -17 -168 b 107 -164 71 -168 89 -167 z "},"ĩ":{"ha":175,"x_min":0,"x_max":0,"o":"m -32 835 l 10 835 l 10 847 b 32 872 10 864 18 872 b 86 856 47 872 65 864 b 151 835 108 846 132 835 b 206 938 188 835 206 871 l 206 946 l 164 946 l 164 933 b 142 908 164 917 157 908 b 89 925 125 908 108 917 b 25 946 68 936 46 946 b -32 843 -15 946 -32 910 z m 49 0 l 126 0 l 126 778 l 49 778 z "},"ĭ":{"ha":175,"x_min":0,"x_max":0,"o":"m -19 968 b 86 833 -19 879 21 833 b 192 968 150 833 192 879 l 128 968 b 86 896 128 922 113 896 b 43 968 58 896 43 922 z m 49 0 l 126 0 l 126 778 l 49 778 z "},"ī":{"ha":175,"x_min":0,"x_max":0,"o":"m 171 913 l 4 913 l 4 850 l 171 850 z m 49 0 l 126 0 l 126 778 l 49 778 z "},"Ĵ":{"ha":390,"x_min":0,"x_max":0,"o":"m 286 1014 l 317 1190 l 319 1190 l 350 1014 l 414 1014 l 364 1238 l 272 1238 l 222 1014 z m 31 350 l 31 168 b 196 -14 31 46 94 -14 b 360 168 296 -14 360 46 l 360 971 l 276 971 l 276 167 b 193 64 276 89 239 64 b 110 167 147 64 110 90 l 110 350 z "},"ĵ":{"ha":133,"x_min":0,"x_max":0,"o":"m 36 821 l 67 997 l 69 997 l 100 821 l 164 821 l 114 1044 l 22 1044 l -29 821 z m -74 -214 b -26 -221 -56 -219 -39 -221 b 106 -62 57 -221 106 -161 l 106 778 l 28 778 l 28 -61 b -36 -147 28 -124 10 -147 b -74 -144 -46 -147 -58 -147 z "},"Ķ":{"ha":408,"x_min":0,"x_max":0,"o":"m 31 0 l 114 0 l 114 496 l 117 496 l 318 0 l 408 0 l 186 526 l 397 971 l 313 971 l 117 556 l 114 556 l 114 971 l 31 971 z m 161 -207 l 203 -207 l 256 -40 l 175 -40 z "},"ķ":{"ha":376,"x_min":0,"x_max":0,"o":"m 28 0 l 106 0 l 106 381 l 108 381 l 279 0 l 367 0 l 167 422 l 356 778 l 274 778 l 108 463 l 106 463 l 106 999 l 28 999 z m 138 -207 l 179 -207 l 232 -40 l 151 -40 z "},"Ļ":{"ha":289,"x_min":0,"x_max":0,"o":"m 31 971 l 31 0 l 281 0 l 281 78 l 114 78 l 114 971 z m 103 -207 l 144 -207 l 197 -40 l 117 -40 z "},"Ĺ":{"ha":289,"x_min":0,"x_max":0,"o":"m 93 1014 l 164 1238 l 82 1238 l 38 1014 z m 31 971 l 31 0 l 281 0 l 281 78 l 114 78 l 114 971 z "},"Ŀ":{"ha":289,"x_min":0,"x_max":0,"o":"m 31 972 l 31 0 l 281 0 l 281 78 l 114 78 l 114 972 z m 258 467 l 258 563 l 183 563 l 183 467 z "},"ŀ":{"ha":133,"x_min":0,"x_max":0,"o":"m 28 1 l 106 1 l 106 1000 l 28 1000 z m 228 444 l 228 540 l 153 540 l 153 444 z "},"ļ":{"ha":133,"x_min":0,"x_max":0,"o":"m 28 0 l 106 0 l 106 999 l 28 999 z m 13 -207 l 54 -207 l 107 -40 l 26 -40 z "},"ľ":{"ha":133,"x_min":0,"x_max":0,"o":"m 28 0 l 106 0 l 106 999 l 28 999 z m 142 726 l 186 726 l 238 999 l 163 999 z "},"Ő":{"ha":394,"x_min":0,"x_max":0,"o":"m 114 1014 l 169 1014 l 243 1238 l 160 1238 z m 217 1014 l 272 1014 l 346 1238 l 263 1238 z m 197 -14 b 364 181 299 -14 364 50 l 364 790 b 197 985 364 921 299 985 b 31 790 96 985 31 921 l 31 181 b 197 -14 31 50 96 -14 z m 197 64 b 114 167 151 64 114 90 l 114 804 b 197 907 114 882 151 907 b 281 804 243 907 281 882 l 281 167 b 197 64 281 89 243 64 z "},"ő":{"ha":361,"x_min":0,"x_max":0,"o":"m 97 821 l 153 821 l 226 1044 l 143 1044 z m 200 821 l 256 821 l 329 1044 l 246 1044 z m 181 -14 b 333 181 274 -14 333 50 l 333 599 b 181 792 333 729 274 792 b 28 599 88 792 28 729 l 28 181 b 181 -14 28 50 88 -14 z m 181 58 b 106 164 139 58 106 86 l 106 614 b 181 719 106 692 139 719 b 256 614 222 719 256 692 l 256 164 b 181 58 256 86 222 58 z "},"Ŕ":{"ha":390,"x_min":0,"x_max":0,"o":"m 194 1014 l 265 1238 l 183 1238 l 139 1014 z m 31 0 l 114 0 l 114 446 l 182 446 b 263 343 238 446 254 425 l 297 0 l 381 0 l 344 340 b 251 488 333 443 315 479 l 251 490 b 360 661 328 501 360 563 l 360 779 b 193 971 360 903 300 971 l 31 971 z m 114 521 l 114 893 l 197 893 b 281 790 251 893 281 857 l 281 631 b 197 521 281 564 251 521 z "},"ŕ":{"ha":258,"x_min":0,"x_max":0,"o":"m 167 821 l 238 1044 l 156 1044 l 111 821 z m 28 0 l 106 0 l 106 449 b 221 685 106 582 129 685 b 247 683 229 685 238 685 l 247 788 b 218 792 236 790 226 792 b 108 610 150 792 125 715 l 106 610 l 99 778 l 28 778 z "},"Ŗ":{"ha":390,"x_min":0,"x_max":0,"o":"m 31 0 l 114 0 l 114 446 l 182 446 b 263 343 238 446 254 425 l 297 0 l 381 0 l 344 340 b 251 488 333 443 315 479 l 251 490 b 360 661 328 501 360 563 l 360 779 b 193 971 360 903 300 971 l 31 971 z m 114 521 l 114 893 l 197 893 b 281 790 251 893 281 857 l 281 631 b 197 521 281 564 251 521 z m 151 -207 l 193 -207 l 246 -40 l 165 -40 z "},"Ř":{"ha":390,"x_min":0,"x_max":0,"o":"m 142 1238 l 78 1238 l 128 1014 l 219 1014 l 269 1238 l 206 1238 l 176 1061 l 174 1061 z m 31 0 l 114 0 l 114 446 l 182 446 b 263 343 238 446 254 425 l 297 0 l 381 0 l 344 340 b 251 488 333 443 315 479 l 251 490 b 360 661 328 501 360 563 l 360 779 b 193 971 360 903 300 971 l 31 971 z m 114 521 l 114 893 l 197 893 b 281 790 251 893 281 857 l 281 631 b 197 521 281 564 251 521 z "},"ŗ":{"ha":258,"x_min":0,"x_max":0,"o":"m 28 0 l 106 0 l 106 449 b 221 685 106 582 129 685 b 247 683 229 685 238 685 l 247 788 b 218 792 236 790 226 792 b 108 610 150 792 125 715 l 106 610 l 99 778 l 28 778 z m 67 -207 l 108 -207 l 161 -40 l 81 -40 z "},"ř":{"ha":258,"x_min":0,"x_max":0,"o":"m 114 1044 l 50 1044 l 100 821 l 192 821 l 242 1044 l 178 1044 l 149 868 l 146 868 z m 28 0 l 106 0 l 106 449 b 221 685 106 582 129 685 b 247 683 229 685 238 685 l 247 788 b 218 792 236 790 226 792 b 108 610 150 792 125 715 l 106 610 l 99 778 l 28 778 z "},"Ŝ":{"ha":375,"x_min":0,"x_max":0,"o":"m 157 1014 l 188 1190 l 190 1190 l 221 1014 l 285 1014 l 235 1238 l 143 1238 l 93 1014 z m 21 336 l 21 181 b 188 -14 21 50 86 -14 b 354 181 289 -14 354 50 l 354 300 b 232 513 354 422 283 476 l 208 529 b 108 715 131 585 108 606 l 108 804 b 188 907 108 882 144 907 b 267 804 231 907 267 882 l 267 649 l 346 649 l 346 790 b 188 985 346 921 283 985 b 29 790 92 985 29 921 l 29 685 b 154 469 29 563 99 511 l 176 453 b 271 269 254 394 271 379 l 271 167 b 188 64 271 90 233 64 b 104 167 142 64 104 89 l 104 336 z "},"Ś":{"ha":375,"x_min":0,"x_max":0,"o":"m 208 1014 l 279 1238 l 197 1238 l 153 1014 z m 21 336 l 21 181 b 188 -14 21 50 86 -14 b 354 181 289 -14 354 50 l 354 300 b 232 513 354 422 283 476 l 208 529 b 108 715 131 585 108 606 l 108 804 b 188 907 108 882 144 907 b 267 804 231 907 267 882 l 267 649 l 346 649 l 346 790 b 188 985 346 921 283 985 b 29 790 92 985 29 921 l 29 685 b 154 469 29 563 99 511 l 176 453 b 271 269 254 394 271 379 l 271 167 b 188 64 271 90 233 64 b 104 167 142 64 104 89 l 104 336 z "},"Ş":{"ha":375,"x_min":0,"x_max":0,"o":"m 21 336 l 21 181 b 165 -12 21 60 76 -4 l 157 -67 b 236 -100 206 -67 236 -79 b 189 -125 236 -115 218 -125 b 136 -119 176 -125 158 -124 l 136 -171 b 194 -178 154 -175 176 -178 b 308 -104 261 -178 308 -147 b 203 -35 308 -62 267 -36 l 207 -12 b 354 181 297 -6 354 58 l 354 300 b 232 513 354 422 283 476 l 208 529 b 108 715 131 585 108 606 l 108 804 b 188 907 108 882 144 907 b 267 804 231 907 267 882 l 267 649 l 346 649 l 346 790 b 188 985 346 921 283 985 b 29 790 92 985 29 921 l 29 685 b 154 469 29 563 99 511 l 176 453 b 271 269 254 394 271 379 l 271 167 b 188 64 271 90 233 64 b 104 167 142 64 104 89 l 104 336 z "},"Ű":{"ha":394,"x_min":0,"x_max":0,"o":"m 114 1014 l 169 1014 l 243 1238 l 160 1238 z m 217 1014 l 272 1014 l 346 1238 l 263 1238 z m 31 971 l 31 168 b 197 -14 31 46 96 -14 b 364 168 299 -14 364 46 l 364 971 l 281 971 l 281 167 b 197 64 281 89 243 64 b 114 167 151 64 114 90 l 114 971 z "},"ų":{"ha":361,"x_min":0,"x_max":0,"o":"m 333 778 l 256 778 l 256 276 b 161 58 256 132 224 58 b 106 150 122 58 106 86 l 106 778 l 28 778 l 28 139 b 129 -14 28 38 61 -14 b 253 126 193 -14 235 33 l 256 126 l 264 3 b 163 -90 201 -12 163 -47 b 282 -168 163 -137 211 -168 b 335 -164 299 -168 317 -167 l 335 -89 b 294 -93 322 -92 308 -93 b 226 -58 251 -93 226 -81 b 332 0 226 -29 272 -7 l 333 0 z "},"ű":{"ha":361,"x_min":0,"x_max":0,"o":"m 97 821 l 153 821 l 226 1044 l 143 1044 z m 200 821 l 256 821 l 329 1044 l 246 1044 z m 333 778 l 256 778 l 256 276 b 161 58 256 132 224 58 b 106 150 122 58 106 86 l 106 778 l 28 778 l 28 139 b 129 -14 28 38 61 -14 b 253 126 193 -14 235 33 l 256 126 l 264 0 l 333 0 z "},"Ŵ":{"ha":647,"x_min":0,"x_max":0,"o":"m 294 1014 l 325 1190 l 328 1190 l 358 1014 l 422 1014 l 372 1238 l 281 1238 l 231 1014 z m 104 0 l 232 0 l 272 378 l 322 899 l 325 899 l 375 378 l 415 0 l 543 0 l 636 971 l 554 971 l 479 58 l 476 58 l 385 971 l 267 971 l 174 58 l 171 58 l 96 971 l 11 971 z "},"ŵ":{"ha":650,"x_min":0,"x_max":0,"o":"m 297 821 l 328 997 l 331 997 l 361 821 l 425 821 l 375 1044 l 283 1044 l 233 821 z m 122 0 l 232 0 l 324 697 l 326 697 l 418 0 l 528 0 l 639 778 l 564 778 l 474 58 l 471 58 l 389 778 l 264 778 l 179 58 l 176 58 l 90 778 l 11 778 z "},"Ŷ":{"ha":411,"x_min":0,"x_max":0,"o":"m 178 1014 l 208 1190 l 211 1190 l 242 1014 l 306 1014 l 256 1238 l 164 1238 l 114 1014 z m 400 971 l 318 971 l 211 463 l 208 463 l 96 971 l 11 971 l 167 356 l 167 0 l 250 0 l 250 356 z "},"ŷ":{"ha":350,"x_min":0,"x_max":0,"o":"m 147 821 l 178 997 l 181 997 l 211 821 l 275 821 l 225 1044 l 133 1044 l 83 821 z m 26 -200 l 43 -200 b 218 -46 157 -200 200 -167 l 340 778 l 267 778 l 179 79 l 176 79 l 89 778 l 10 778 l 128 11 b 135 -56 133 -22 135 -40 b 26 -128 135 -114 106 -128 z "},"Ÿ":{"ha":411,"x_min":0,"x_max":0,"o":"m 117 1040 l 192 1040 l 192 1138 l 117 1138 z m 224 1040 l 299 1040 l 299 1138 l 224 1138 z m 400 971 l 318 971 l 211 463 l 208 463 l 96 971 l 11 971 l 167 356 l 167 0 l 250 0 l 250 356 z "},"Ź":{"ha":383,"x_min":0,"x_max":0,"o":"m 213 1014 l 283 1238 l 201 1238 l 157 1014 z m 14 0 l 369 0 l 369 78 l 99 78 l 354 893 l 354 971 l 28 971 l 28 893 l 269 893 l 14 78 z "},"Ž":{"ha":383,"x_min":0,"x_max":0,"o":"m 160 1238 l 96 1238 l 146 1014 l 238 1014 l 288 1238 l 224 1238 l 194 1061 l 192 1061 z m 14 0 l 369 0 l 369 78 l 99 78 l 354 893 l 354 971 l 28 971 l 28 893 l 269 893 l 14 78 z "},"Ż":{"ha":383,"x_min":0,"x_max":0,"o":"m 229 1040 l 229 1136 l 154 1136 l 154 1040 z m 14 0 l 369 0 l 369 78 l 99 78 l 354 893 l 354 971 l 28 971 l 28 893 l 269 893 l 14 78 z "},"ź":{"ha":333,"x_min":0,"x_max":0,"o":"m 186 821 l 257 1044 l 175 1044 l 131 821 z m 10 0 l 319 0 l 319 72 l 90 72 l 304 706 l 304 778 l 24 778 l 24 706 l 224 706 l 10 72 z "},"ž":{"ha":333,"x_min":0,"x_max":0,"o":"m 133 1044 l 69 1044 l 119 821 l 211 821 l 261 1044 l 197 1044 l 168 868 l 165 868 z m 10 0 l 319 0 l 319 72 l 90 72 l 304 706 l 304 778 l 24 778 l 24 706 l 224 706 l 10 72 z "},"ż":{"ha":333,"x_min":0,"x_max":0,"o":"m 203 847 l 203 943 l 128 943 l 128 847 z m 10 0 l 319 0 l 319 72 l 90 72 l 304 706 l 304 778 l 24 778 l 24 706 l 224 706 l 10 72 z "},"Š":{"ha":375,"x_min":0,"x_max":0,"o":"m 156 1238 l 92 1238 l 142 1014 l 233 1014 l 283 1238 l 219 1238 l 190 1061 l 188 1061 z m 21 336 l 21 181 b 188 -14 21 50 86 -14 b 354 181 289 -14 354 50 l 354 300 b 232 513 354 422 283 476 l 208 529 b 108 715 131 585 108 606 l 108 804 b 188 907 108 882 144 907 b 267 804 231 907 267 882 l 267 649 l 346 649 l 346 790 b 188 985 346 921 283 985 b 29 790 92 985 29 921 l 29 685 b 154 469 29 563 99 511 l 176 453 b 271 269 254 394 271 379 l 271 167 b 188 64 271 90 233 64 b 104 167 142 64 104 89 l 104 336 z "},"š":{"ha":343,"x_min":0,"x_max":0,"o":"m 139 1044 l 75 1044 l 125 821 l 217 821 l 267 1044 l 203 1044 l 174 868 l 171 868 z m 21 260 l 21 174 b 171 -14 21 43 79 -14 b 322 174 263 -14 322 43 l 322 236 b 215 411 322 339 263 379 l 192 426 b 101 579 125 472 101 489 l 101 621 b 171 719 101 699 133 719 b 240 621 208 719 240 699 l 240 532 l 314 532 l 314 606 b 171 792 314 736 263 792 b 28 606 81 792 28 736 l 28 549 b 135 375 28 456 88 408 l 157 358 b 244 210 233 303 244 293 l 244 158 b 174 60 244 81 214 60 b 99 158 133 60 99 81 l 99 260 z "},"Ţ":{"ha":375,"x_min":0,"x_max":0,"o":"m 354 971 l 21 971 l 21 893 l 146 893 l 146 0 l 167 0 l 157 -67 b 236 -100 206 -67 236 -79 b 189 -125 236 -115 218 -125 b 136 -119 176 -125 158 -124 l 136 -171 b 194 -178 154 -175 176 -178 b 308 -104 261 -178 308 -147 b 203 -35 308 -62 267 -36 l 208 0 l 229 0 l 229 893 l 354 893 z "},"Ť":{"ha":375,"x_min":0,"x_max":0,"o":"m 156 1238 l 92 1238 l 142 1014 l 233 1014 l 283 1238 l 219 1238 l 190 1061 l 188 1061 z m 354 971 l 21 971 l 21 893 l 146 893 l 146 0 l 229 0 l 229 893 l 354 893 z "},"ť":{"ha":296,"x_min":0,"x_max":0,"o":"m 222 838 l 267 838 l 318 1054 l 243 1054 z m 14 778 l 14 706 l 89 706 l 89 139 b 221 -14 89 46 140 -14 b 282 -4 239 -14 260 -11 l 282 65 b 236 60 264 61 249 60 b 167 140 189 60 167 86 l 167 706 l 282 706 l 282 778 l 167 778 l 167 907 l 89 907 l 89 778 z "},"ŧ":{"ha":296,"x_min":0,"x_max":0,"o":"m 14 778 l 14 706 l 89 706 l 89 585 l 14 585 l 14 513 l 89 513 l 89 139 b 221 -14 89 46 140 -14 b 282 -4 239 -14 260 -11 l 282 65 b 236 60 264 61 249 60 b 167 140 189 60 167 86 l 167 513 l 282 513 l 282 585 l 167 585 l 167 706 l 282 706 l 282 778 l 167 778 l 167 907 l 89 907 l 89 778 z "},"Ŧ":{"ha":375,"x_min":0,"x_max":0,"o":"m 354 971 l 21 971 l 21 893 l 146 893 l 146 622 l 57 622 l 57 544 l 146 544 l 146 0 l 229 0 l 229 544 l 318 544 l 318 622 l 229 622 l 229 893 l 354 893 z "},"ţ":{"ha":296,"x_min":0,"x_max":0,"o":"m 14 778 l 14 706 l 89 706 l 89 139 b 147 7 89 79 110 33 l 136 -67 b 215 -100 185 -67 215 -79 b 168 -125 215 -115 197 -125 b 115 -119 156 -125 138 -124 l 115 -171 b 174 -178 133 -175 156 -178 b 288 -104 240 -178 288 -147 b 182 -35 288 -62 246 -36 l 186 -10 b 221 -14 197 -12 208 -14 b 282 -4 239 -14 260 -11 l 282 65 b 236 60 264 61 249 60 b 167 140 189 60 167 86 l 167 706 l 282 706 l 282 778 l 167 778 l 167 907 l 89 907 l 89 778 z "},"Ũ":{"ha":394,"x_min":0,"x_max":0,"o":"m 78 1028 l 119 1028 l 119 1040 b 142 1065 119 1057 128 1065 b 196 1049 157 1065 175 1057 b 261 1028 218 1039 242 1028 b 315 1131 297 1028 315 1064 l 315 1139 l 274 1139 l 274 1126 b 251 1101 274 1110 267 1101 b 199 1118 235 1101 218 1110 b 135 1139 178 1129 156 1139 b 78 1036 94 1139 78 1103 z m 31 971 l 31 168 b 197 -14 31 46 96 -14 b 364 168 299 -14 364 46 l 364 971 l 281 971 l 281 167 b 197 64 281 89 243 64 b 114 167 151 64 114 90 l 114 971 z "},"Ů":{"ha":394,"x_min":0,"x_max":0,"o":"m 99 1115 b 197 1018 99 1050 147 1018 b 296 1115 247 1018 296 1050 b 197 1211 296 1179 247 1211 b 99 1115 147 1211 99 1179 z m 158 1114 b 197 1158 158 1146 176 1158 b 235 1114 217 1158 235 1146 b 197 1071 235 1083 217 1071 b 158 1114 176 1071 158 1083 z m 31 971 l 31 168 b 197 -14 31 46 96 -14 b 364 168 299 -14 364 46 l 364 971 l 281 971 l 281 167 b 197 64 281 89 243 64 b 114 167 151 64 114 90 l 114 971 z "},"Ŭ":{"ha":394,"x_min":0,"x_max":0,"o":"m 92 1161 b 197 1026 92 1072 132 1026 b 303 1161 263 1026 303 1072 l 240 1161 b 197 1089 240 1115 225 1089 b 154 1161 169 1089 154 1115 z m 31 971 l 31 168 b 197 -14 31 46 96 -14 b 364 168 299 -14 364 46 l 364 971 l 281 971 l 281 167 b 197 64 281 89 243 64 b 114 167 151 64 114 90 l 114 971 z "},"Ū":{"ha":394,"x_min":0,"x_max":0,"o":"m 281 1106 l 114 1106 l 114 1043 l 281 1043 z m 31 971 l 31 168 b 197 -14 31 46 96 -14 b 364 168 299 -14 364 46 l 364 971 l 281 971 l 281 167 b 197 64 281 89 243 64 b 114 167 151 64 114 90 l 114 971 z "},"ũ":{"ha":361,"x_min":0,"x_max":0,"o":"m 61 835 l 103 835 l 103 847 b 125 872 103 864 111 872 b 179 856 140 872 158 864 b 244 835 201 846 225 835 b 299 938 281 835 299 871 l 299 946 l 257 946 l 257 933 b 235 908 257 917 250 908 b 182 925 218 908 201 917 b 118 946 161 936 139 946 b 61 843 78 946 61 910 z m 333 778 l 256 778 l 256 276 b 161 58 256 132 224 58 b 106 150 122 58 106 86 l 106 778 l 28 778 l 28 139 b 129 -14 28 38 61 -14 b 253 126 193 -14 235 33 l 256 126 l 264 0 l 333 0 z "},"ů":{"ha":361,"x_min":0,"x_max":0,"o":"m 82 921 b 181 825 82 857 129 825 b 279 921 232 825 279 857 b 181 1018 279 986 232 1018 b 82 921 129 1018 82 986 z m 142 921 b 181 965 142 953 161 965 b 219 921 200 965 219 953 b 181 878 219 890 200 878 b 142 921 161 878 142 890 z m 333 778 l 256 778 l 256 276 b 161 58 256 132 224 58 b 106 150 122 58 106 86 l 106 778 l 28 778 l 28 139 b 129 -14 28 38 61 -14 b 253 126 193 -14 235 33 l 256 126 l 264 0 l 333 0 z "},"ŭ":{"ha":361,"x_min":0,"x_max":0,"o":"m 75 968 b 181 833 75 879 115 833 b 286 968 246 833 286 879 l 224 968 b 181 896 224 922 208 896 b 138 968 153 896 138 922 z m 333 778 l 256 778 l 256 276 b 161 58 256 132 224 58 b 106 150 122 58 106 86 l 106 778 l 28 778 l 28 139 b 129 -14 28 38 61 -14 b 253 126 193 -14 235 33 l 256 126 l 264 0 l 333 0 z "},"ū":{"ha":361,"x_min":0,"x_max":0,"o":"m 264 913 l 97 913 l 97 850 l 264 850 z m 333 778 l 256 778 l 256 276 b 161 58 256 132 224 58 b 106 150 122 58 106 86 l 106 778 l 28 778 l 28 139 b 129 -14 28 38 61 -14 b 253 126 193 -14 235 33 l 256 126 l 264 0 l 333 0 z "},"ĳ":{"ha":267,"x_min":0,"x_max":0,"o":"m 28 860 l 106 860 l 106 985 l 28 985 z m 161 860 l 239 860 l 239 985 l 161 985 z m 28 0 l 106 0 l 106 778 l 28 778 z m 60 -214 b 107 -221 78 -219 94 -221 b 239 -62 190 -221 239 -161 l 239 778 l 161 778 l 161 -61 b 97 -147 161 -124 143 -147 b 60 -144 88 -147 75 -147 z "},"Ń":{"ha":436,"x_min":0,"x_max":0,"o":"m 238 1014 l 308 1238 l 226 1238 l 182 1014 z m 31 971 l 31 0 l 114 0 l 114 535 l 93 899 l 96 899 l 292 0 l 406 0 l 406 971 l 322 971 l 322 438 l 347 86 l 344 86 l 151 971 z "},"Ň":{"ha":436,"x_min":0,"x_max":0,"o":"m 185 1238 l 121 1238 l 171 1014 l 263 1014 l 313 1238 l 249 1238 l 219 1061 l 217 1061 z m 31 971 l 31 0 l 114 0 l 114 535 l 93 899 l 96 899 l 292 0 l 406 0 l 406 971 l 322 971 l 322 438 l 347 86 l 344 86 l 151 971 z "},"ņ":{"ha":361,"x_min":0,"x_max":0,"o":"m 28 0 l 106 0 l 106 501 b 200 719 106 646 138 719 b 256 628 239 719 256 692 l 256 0 l 333 0 l 333 639 b 232 792 333 740 300 792 b 108 651 168 792 126 744 l 106 651 l 97 778 l 28 778 z m 126 -207 l 168 -207 l 221 -40 l 140 -40 z "},"ń":{"ha":361,"x_min":0,"x_max":0,"o":"m 201 821 l 272 1044 l 190 1044 l 146 821 z m 28 0 l 106 0 l 106 501 b 200 719 106 646 138 719 b 256 628 239 719 256 692 l 256 0 l 333 0 l 333 639 b 232 792 333 740 300 792 b 108 651 168 792 126 744 l 106 651 l 97 778 l 28 778 z "},"ň":{"ha":361,"x_min":0,"x_max":0,"o":"m 149 1044 l 85 1044 l 135 821 l 226 821 l 276 1044 l 213 1044 l 183 868 l 181 868 z m 28 0 l 106 0 l 106 501 b 200 719 106 646 138 719 b 256 628 239 719 256 692 l 256 0 l 333 0 l 333 639 b 232 792 333 740 300 792 b 108 651 168 792 126 744 l 106 651 l 97 778 l 28 778 z "},"Ņ":{"ha":436,"x_min":0,"x_max":0,"o":"m 31 971 l 31 0 l 114 0 l 114 535 l 93 899 l 96 899 l 292 0 l 406 0 l 406 971 l 322 971 l 322 438 l 347 86 l 344 86 l 151 971 z m 164 -207 l 206 -207 l 258 -40 l 178 -40 z "},"Ŋ":{"ha":525,"x_min":0,"x_max":0,"o":"m 31 971 l 31 0 l 494 0 l 494 971 z m 264 553 l 156 901 l 369 901 l 267 553 z m 114 153 l 114 817 l 224 485 z m 411 157 l 307 485 l 411 814 z m 156 69 l 264 418 l 267 418 l 369 69 z "},"ŋ":{"ha":519,"x_min":0,"x_max":0,"o":"m 28 971 l 28 0 l 492 0 l 492 971 z m 261 553 l 153 901 l 367 901 l 264 553 z m 111 153 l 111 817 l 221 485 z m 408 157 l 304 485 l 408 814 z m 153 69 l 261 418 l 264 418 l 367 69 z "},"Ŏ":{"ha":394,"x_min":0,"x_max":0,"o":"m 92 1163 b 197 1026 92 1074 132 1026 b 303 1163 263 1026 303 1074 l 240 1163 b 197 1089 240 1115 225 1089 b 154 1163 169 1089 154 1115 z m 197 -14 b 364 181 299 -14 364 50 l 364 790 b 197 985 364 921 299 985 b 31 790 96 985 31 921 l 31 181 b 197 -14 31 50 96 -14 z m 197 64 b 114 167 151 64 114 90 l 114 804 b 197 907 114 882 151 907 b 281 804 243 907 281 882 l 281 167 b 197 64 281 89 243 64 z "},"Ō":{"ha":394,"x_min":0,"x_max":0,"o":"m 281 1106 l 114 1106 l 114 1043 l 281 1043 z m 197 -14 b 364 181 299 -14 364 50 l 364 790 b 197 985 364 921 299 985 b 31 790 96 985 31 921 l 31 181 b 197 -14 31 50 96 -14 z m 197 64 b 114 167 151 64 114 90 l 114 804 b 197 907 114 882 151 907 b 281 804 243 907 281 882 l 281 167 b 197 64 281 89 243 64 z "},"ŏ":{"ha":361,"x_min":0,"x_max":0,"o":"m 75 968 b 181 833 75 879 115 833 b 286 968 246 833 286 879 l 224 968 b 181 896 224 922 208 896 b 138 968 153 896 138 922 z m 181 -14 b 333 181 274 -14 333 50 l 333 599 b 181 792 333 729 274 792 b 28 599 88 792 28 729 l 28 181 b 181 -14 28 50 88 -14 z m 181 58 b 106 164 139 58 106 86 l 106 614 b 181 719 106 692 139 719 b 256 614 222 719 256 692 l 256 164 b 181 58 256 86 222 58 z "},"ō":{"ha":361,"x_min":0,"x_max":0,"o":"m 264 913 l 97 913 l 97 850 l 264 850 z m 181 -14 b 333 181 274 -14 333 50 l 333 599 b 181 792 333 729 274 792 b 28 599 88 792 28 729 l 28 181 b 181 -14 28 50 88 -14 z m 181 58 b 106 164 139 58 106 86 l 106 614 b 181 719 106 692 139 719 b 256 614 222 719 256 692 l 256 164 b 181 58 256 86 222 58 z "},"ŉ":{"ha":531,"x_min":0,"x_max":0,"o":"m 33 971 l 33 0 l 497 0 l 497 971 z m 267 553 l 158 901 l 372 901 l 269 553 z m 117 153 l 117 817 l 226 485 z m 414 157 l 310 485 l 414 814 z m 158 69 l 267 418 l 269 418 l 372 69 z "},"Ĳ":{"ha":535,"x_min":0,"x_max":0,"o":"m 31 971 l 31 0 l 114 0 l 114 971 z m 175 350 l 175 168 b 340 -14 175 46 239 -14 b 504 168 440 -14 504 46 l 504 971 l 421 971 l 421 167 b 338 64 421 89 383 64 b 254 167 292 64 254 90 l 254 350 z "},"ĸ":{"ha":376,"x_min":0,"x_max":0,"o":"m 28 0 l 106 0 l 106 381 l 108 381 l 279 0 l 367 0 l 167 422 l 356 778 l 274 778 l 108 463 l 106 463 l 106 778 l 28 778 z "},"Ð":{"ha":394,"x_min":0,"x_max":0,"o":"m 31 0 l 197 0 b 364 194 299 0 364 64 l 364 776 b 197 971 364 907 299 971 l 31 971 l 31 550 l -10 550 l -10 475 l 31 475 z m 114 78 l 114 475 l 213 475 l 213 550 l 114 550 l 114 893 l 197 893 b 281 790 243 893 281 868 l 281 181 b 197 78 281 103 243 78 z "},"Ľ":{"ha":289,"x_min":0,"x_max":0,"o":"m 31 971 l 31 0 l 281 0 l 281 78 l 114 78 l 114 971 z m 150 699 l 194 699 l 246 971 l 171 971 z "},"Ų":{"ha":394,"x_min":0,"x_max":0,"o":"m 31 971 l 31 168 b 189 -14 31 49 92 -11 b 144 -86 161 -32 144 -57 b 264 -169 144 -137 192 -169 b 317 -165 279 -169 299 -168 l 317 -90 b 276 -94 304 -93 290 -94 b 208 -56 233 -94 208 -81 b 249 -8 208 -36 224 -19 b 364 168 319 10 364 68 l 364 971 l 281 971 l 281 167 b 197 64 281 89 243 64 b 114 167 151 64 114 90 l 114 971 z "},"ð":{"ha":361,"x_min":0,"x_max":0,"o":"m 142 847 l 196 879 b 257 650 235 825 253 756 l 254 650 b 147 764 238 728 200 764 b 28 592 78 764 28 700 l 28 181 b 181 -14 28 56 83 -14 b 333 181 279 -14 333 56 l 333 603 b 247 910 333 738 313 836 l 294 938 l 269 979 l 211 944 b 93 1014 179 971 140 994 l 75 976 b 161 917 110 957 138 938 l 115 889 z m 181 58 b 106 164 132 58 106 96 l 106 586 b 172 692 106 653 131 692 b 256 475 229 692 256 621 l 256 164 b 181 58 256 96 229 58 z "},"í":{"ha":175,"x_min":0,"x_max":0,"o":"m 108 821 l 179 1044 l 97 1044 l 53 821 z m 49 0 l 126 0 l 126 778 l 49 778 z "},"ĺ":{"ha":133,"x_min":0,"x_max":0,"o":"m 88 1028 l 158 1251 l 76 1251 l 32 1028 z m 28 0 l 106 0 l 106 999 l 28 999 z "},"ś":{"ha":343,"x_min":0,"x_max":0,"o":"m 192 821 l 263 1044 l 181 1044 l 136 821 z m 21 260 l 21 174 b 171 -14 21 43 79 -14 b 322 174 263 -14 322 43 l 322 236 b 215 411 322 339 263 379 l 192 426 b 101 579 125 472 101 489 l 101 621 b 171 719 101 699 133 719 b 240 621 208 719 240 699 l 240 532 l 314 532 l 314 606 b 171 792 314 736 263 792 b 28 606 81 792 28 736 l 28 549 b 135 375 28 456 88 408 l 157 358 b 244 210 233 303 244 293 l 244 158 b 174 60 244 81 214 60 b 99 158 133 60 99 81 l 99 260 z "},"ŝ":{"ha":343,"x_min":0,"x_max":0,"o":"m 140 821 l 171 997 l 174 997 l 204 821 l 268 821 l 218 1044 l 126 1044 l 76 821 z m 21 260 l 21 174 b 171 -14 21 43 79 -14 b 322 174 263 -14 322 43 l 322 236 b 215 411 322 339 263 379 l 192 426 b 101 579 125 472 101 489 l 101 621 b 171 719 101 699 133 719 b 240 621 208 719 240 699 l 240 532 l 314 532 l 314 606 b 171 792 314 736 263 792 b 28 606 81 792 28 736 l 28 549 b 135 375 28 456 88 408 l 157 358 b 244 210 233 303 244 293 l 244 158 b 174 60 244 81 214 60 b 99 158 133 60 99 81 l 99 260 z "},"ş":{"ha":343,"x_min":0,"x_max":0,"o":"m 21 260 l 21 174 b 149 -12 21 54 69 -4 l 140 -67 b 219 -100 189 -67 219 -79 b 172 -125 219 -115 201 -125 b 119 -119 160 -125 142 -124 l 119 -171 b 178 -178 138 -175 160 -178 b 292 -104 244 -178 292 -147 b 186 -35 292 -62 250 -36 l 190 -12 b 322 174 271 -6 322 53 l 322 236 b 215 411 322 339 263 379 l 192 426 b 101 579 125 472 101 489 l 101 621 b 171 719 101 699 133 719 b 240 621 208 719 240 699 l 240 532 l 314 532 l 314 606 b 171 792 314 736 263 792 b 28 606 81 792 28 736 l 28 549 b 135 375 28 456 88 408 l 157 358 b 244 210 233 303 244 293 l 244 158 b 174 60 244 81 214 60 b 99 158 133 60 99 81 l 99 260 z "},"−":{"ha":400,"x_min":0,"x_max":0,"o":"m 367 468 l 33 468 l 33 390 l 367 390 z "},"⁴":{"ha":278,"x_min":0,"x_max":0,"o":"m 33 546 l 144 546 l 144 419 l 208 419 l 208 546 l 244 546 l 244 604 l 208 604 l 208 971 l 110 971 l 33 604 z m 94 604 l 150 915 l 151 915 l 144 604 z "},"”":{"ha":325,"x_min":0,"x_max":0,"o":"m 174 657 l 207 657 l 292 971 l 206 971 z m 33 657 l 67 657 l 151 971 l 65 971 z "},"̌":{"ha":164,"x_min":0,"x_max":0,"o":"m 35 699 l 79 699 l 131 971 l 56 971 z "},"ȷ":{"ha":133,"x_min":0,"x_max":0,"o":"m -74 -214 b -26 -221 -56 -219 -39 -221 b 106 -62 57 -221 106 -161 l 106 778 l 28 778 l 28 -61 b -36 -147 28 -124 10 -147 b -74 -144 -46 -147 -58 -147 z "},"ẃ":{"ha":650,"x_min":0,"x_max":0,"o":"m 349 821 l 419 1044 l 338 1044 l 293 821 z m 122 0 l 232 0 l 324 697 l 326 697 l 418 0 l 528 0 l 639 778 l 564 778 l 474 58 l 471 58 l 389 778 l 264 778 l 179 58 l 176 58 l 90 778 l 11 778 z "},"ẁ":{"ha":650,"x_min":0,"x_max":0,"o":"m 307 821 l 363 821 l 319 1044 l 236 1044 z m 122 0 l 232 0 l 324 697 l 326 697 l 418 0 l 528 0 l 639 778 l 564 778 l 474 58 l 471 58 l 389 778 l 264 778 l 179 58 l 176 58 l 90 778 l 11 778 z "},"ẅ":{"ha":650,"x_min":0,"x_max":0,"o":"m 236 847 l 311 847 l 311 944 l 236 944 z m 343 847 l 418 847 l 418 944 l 343 944 z m 122 0 l 232 0 l 324 697 l 326 697 l 418 0 l 528 0 l 639 778 l 564 778 l 474 58 l 471 58 l 389 778 l 264 778 l 179 58 l 176 58 l 90 778 l 11 778 z "},"Ẃ":{"ha":647,"x_min":0,"x_max":0,"o":"m 346 1014 l 417 1238 l 335 1238 l 290 1014 z m 104 0 l 232 0 l 272 378 l 322 899 l 325 899 l 375 378 l 415 0 l 543 0 l 636 971 l 554 971 l 479 58 l 476 58 l 385 971 l 267 971 l 174 58 l 171 58 l 96 971 l 11 971 z "},"Ẁ":{"ha":647,"x_min":0,"x_max":0,"o":"m 304 1014 l 360 1014 l 317 1238 l 233 1238 z m 104 0 l 232 0 l 272 378 l 322 899 l 325 899 l 375 378 l 415 0 l 543 0 l 636 971 l 554 971 l 479 58 l 476 58 l 385 971 l 267 971 l 174 58 l 171 58 l 96 971 l 11 971 z "},"Ẅ":{"ha":647,"x_min":0,"x_max":0,"o":"m 233 1040 l 308 1040 l 308 1138 l 233 1138 z m 340 1040 l 415 1040 l 415 1138 l 340 1138 z m 104 0 l 232 0 l 272 378 l 322 899 l 325 899 l 375 378 l 415 0 l 543 0 l 636 971 l 554 971 l 479 58 l 476 58 l 385 971 l 267 971 l 174 58 l 171 58 l 96 971 l 11 971 z "},"ǽ":{"ha":585,"x_min":0,"x_max":0,"o":"m 314 821 l 385 1044 l 303 1044 l 258 821 z m 263 111 b 407 -14 281 28 333 -14 b 557 181 499 -14 557 50 l 557 301 l 483 301 l 483 164 b 408 58 483 86 450 58 b 333 164 367 58 333 86 l 333 365 l 557 365 l 557 599 b 407 792 557 729 499 792 b 297 742 360 792 322 775 l 294 742 b 183 792 269 775 232 792 b 32 599 86 792 32 722 l 32 511 l 106 511 l 106 614 b 181 719 106 682 132 719 b 256 614 229 719 256 682 l 256 490 b 28 244 67 408 28 367 l 28 151 b 144 -14 28 49 65 -14 b 260 111 204 -14 244 22 z m 333 432 l 333 614 b 408 719 333 692 367 719 b 483 614 450 719 483 692 l 483 432 z m 256 417 l 256 306 b 163 58 256 128 219 58 b 106 157 126 58 106 88 l 106 251 b 256 417 106 335 124 356 z "},"Ǽ":{"ha":590,"x_min":0,"x_max":0,"o":"m 418 1014 l 489 1238 l 407 1238 l 363 1014 z m 11 0 l 96 0 l 163 275 l 313 275 l 313 0 l 576 0 l 576 78 l 396 78 l 396 475 l 558 475 l 558 550 l 396 550 l 396 893 l 569 893 l 569 971 l 251 971 z m 182 353 l 310 883 l 313 883 l 313 353 z "},"μ":{"ha":531,"x_min":0,"x_max":0,"o":"m 33 971 l 33 0 l 497 0 l 497 971 z m 267 553 l 158 901 l 372 901 l 269 553 z m 117 153 l 117 817 l 226 485 z m 414 157 l 310 485 l 414 814 z m 158 69 l 267 418 l 269 418 l 372 69 z "},"ș":{"ha":504,"x_min":0,"x_max":0,"o":"m 21 260 l 21 174 b 171 -14 21 43 79 -14 b 322 174 263 -14 322 43 l 322 236 b 215 411 322 339 263 379 l 192 426 b 101 579 125 472 101 489 l 101 621 b 171 719 101 699 133 719 b 240 621 208 719 240 699 l 240 532 l 314 532 l 314 606 b 171 792 314 736 263 792 b 28 606 81 792 28 736 l 28 549 b 135 375 28 456 88 408 l 157 358 b 244 210 233 303 244 293 l 244 158 b 174 60 244 81 214 60 b 99 158 133 60 99 81 l 99 260 z m 117 -207 l 158 -207 l 211 -40 l 131 -40 z "},"Ș":{"ha":375,"x_min":0,"x_max":0,"o":"m 21 336 l 21 181 b 188 -14 21 50 86 -14 b 354 181 289 -14 354 50 l 354 300 b 232 513 354 422 283 476 l 208 529 b 108 715 131 585 108 606 l 108 804 b 188 907 108 882 144 907 b 267 804 231 907 267 882 l 267 649 l 346 649 l 346 790 b 188 985 346 921 283 985 b 29 790 92 985 29 921 l 29 685 b 154 469 29 563 99 511 l 176 453 b 271 269 254 394 271 379 l 271 167 b 188 64 271 90 233 64 b 104 167 142 64 104 89 l 104 336 z m 133 -207 l 175 -207 l 228 -40 l 147 -40 z "},"ỳ":{"ha":350,"x_min":0,"x_max":0,"o":"m 157 821 l 213 821 l 169 1044 l 86 1044 z m 26 -200 l 43 -200 b 218 -46 157 -200 200 -167 l 340 778 l 267 778 l 179 79 l 176 79 l 89 778 l 10 778 l 128 11 b 135 -56 133 -22 135 -40 b 26 -128 135 -114 106 -128 z "},"Ỳ":{"ha":411,"x_min":0,"x_max":0,"o":"m 188 1014 l 243 1014 l 200 1238 l 117 1238 z m 400 971 l 318 971 l 211 463 l 208 463 l 96 971 l 11 971 l 167 356 l 167 0 l 250 0 l 250 356 z "},"Ǿ":{"ha":394,"x_min":0,"x_max":0,"o":"m 218 1014 l 289 1238 l 207 1238 l 163 1014 z m 197 -14 b 364 181 299 -14 364 50 l 364 790 b 329 922 364 847 351 890 l 350 1013 l 307 1013 l 294 957 b 197 985 268 975 235 985 b 31 790 96 985 31 921 l 31 181 b 65 49 31 125 43 81 l 44 -42 l 88 -42 l 100 14 b 197 -14 126 -4 160 -14 z m 114 208 l 114 804 b 197 907 114 882 151 907 b 263 876 224 907 247 899 z m 197 64 b 132 94 171 64 147 72 l 281 763 l 281 167 b 197 64 281 89 243 64 z "},"ǿ":{"ha":361,"x_min":0,"x_max":0,"o":"m 201 821 l 272 1044 l 190 1044 l 146 821 z m 181 -14 b 333 181 274 -14 333 50 l 333 599 b 307 722 333 650 324 692 l 331 819 l 281 819 l 268 767 b 181 792 243 783 214 792 b 28 599 88 792 28 729 l 28 181 b 54 56 28 128 38 86 l 31 -42 l 81 -42 l 94 11 b 181 -14 118 -6 147 -14 z m 106 204 l 106 614 b 181 719 106 692 139 719 b 238 692 203 719 224 711 z m 181 58 b 124 86 158 58 138 67 l 256 574 l 256 164 b 181 58 256 86 222 58 z "},"Ț":{"ha":375,"x_min":0,"x_max":0,"o":"m 354 971 l 21 971 l 21 893 l 146 893 l 146 0 l 229 0 l 229 893 l 354 893 z m 133 -207 l 175 -207 l 228 -40 l 147 -40 z "},"ț":{"ha":296,"x_min":0,"x_max":0,"o":"m 14 778 l 14 706 l 89 706 l 89 139 b 221 -14 89 46 140 -14 b 282 -4 239 -14 260 -11 l 282 65 b 236 60 264 61 249 60 b 167 140 189 60 167 86 l 167 706 l 282 706 l 282 778 l 167 778 l 167 907 l 89 907 l 89 778 z m 113 -207 l 154 -207 l 207 -40 l 126 -40 z "},"ﬂ":{"ha":450,"x_min":0,"x_max":0,"o":"m 14 706 l 89 706 l 89 0 l 167 0 l 167 706 l 296 706 l 296 778 l 167 778 l 167 854 b 242 940 167 915 189 940 b 296 933 258 940 275 939 l 296 1004 b 228 1014 272 1011 249 1014 b 89 856 140 1014 89 956 l 89 778 l 14 778 z m 344 0 l 422 0 l 422 1000 l 344 1000 z "}}}
